<svg xmlns="http://www.w3.org/2000/svg" xmlns:xlink="http://www.w3.org/1999/xlink" viewBox="0 0 1923.24 1554.97">
  <defs>
    <style>
      .cls-1 {
        fill: #140531;
      }

      .cls-2 {
        fill: #010316;
      }

      .cls-3 {
        fill: #393c5d;
      }

      .cls-4 {
        fill: #382f63;
      }

      .cls-5 {
        fill: #080b35;
      }

      .cls-6 {
        fill: url(#Dégradé_sans_nom_280);
      }

      .cls-7 {
        fill: #070210;
      }

      .cls-8 {
        fill: url(#Dégradé_sans_nom_280-2);
      }

      .cls-9 {
        fill: url(#Dégradé_sans_nom_280-3);
      }

      .cls-10 {
        fill: url(#Dégradé_sans_nom_280-4);
      }

      .cls-11 {
        fill: url(#Dégradé_sans_nom_280-5);
      }

      .cls-12 {
        fill: url(#Dégradé_sans_nom_280-6);
      }

      .cls-13 {
        fill: url(#Dégradé_sans_nom_280-7);
      }

      .cls-14 {
        fill: url(#Dégradé_sans_nom_280-8);
      }

      .cls-15 {
        fill: #f4a224;
      }

      .cls-16 {
        opacity: 0.3;
        fill: url(#Dégradé_sans_nom_97);
      }
    </style>
    <linearGradient id="Dégradé_sans_nom_280" data-name="Dégradé sans nom 280" x1="960.05" y1="2336.83" x2="960.05" y2="647.63" gradientUnits="userSpaceOnUse">
      <stop offset="0"/>
      <stop offset="1" stop-color="#140531"/>
    </linearGradient>
    <linearGradient id="Dégradé_sans_nom_280-2" x1="908.96" y1="729.8" x2="908.96" y2="671.76" xlink:href="#Dégradé_sans_nom_280"/>
    <linearGradient id="Dégradé_sans_nom_280-3" x1="865.49" y1="729.8" x2="865.49" y2="671.76" xlink:href="#Dégradé_sans_nom_280"/>
    <linearGradient id="Dégradé_sans_nom_280-4" x1="821.72" y1="729.8" x2="821.72" y2="671.76" xlink:href="#Dégradé_sans_nom_280"/>
    <linearGradient id="Dégradé_sans_nom_280-5" x1="1011.23" y1="729.8" x2="1011.23" y2="671.76" xlink:href="#Dégradé_sans_nom_280"/>
    <linearGradient id="Dégradé_sans_nom_280-6" x1="1054.7" y1="729.8" x2="1054.7" y2="671.76" xlink:href="#Dégradé_sans_nom_280"/>
    <linearGradient id="Dégradé_sans_nom_280-7" x1="1098.47" y1="729.8" x2="1098.47" y2="671.76" xlink:href="#Dégradé_sans_nom_280"/>
    <linearGradient id="Dégradé_sans_nom_280-8" x1="959.85" y1="729.8" x2="959.85" y2="671.76" xlink:href="#Dégradé_sans_nom_280"/>
    <linearGradient id="Dégradé_sans_nom_97" data-name="Dégradé sans nom 97" x1="925.22" y1="8.5" x2="994.37" y2="8.5" gradientUnits="userSpaceOnUse">
      <stop offset="0" stop-color="#010316"/>
      <stop offset="1" stop-color="#080b35" stop-opacity="0"/>
    </linearGradient>
  </defs>
  <title>Chap27_palais</title>
  <g id="Calque_2" data-name="Calque 2">
    <g id="Palais">
      <g>
        <g>
          <rect class="cls-1" x="1398.36" y="1037.46" width="20.85" height="344.59" transform="translate(2817.56 2419.52) rotate(-180)"/>
          <rect class="cls-2" x="1398.36" y="1037.46" width="20.85" height="2.95" transform="translate(2817.56 2077.87) rotate(-180)"/>
          <path class="cls-2" d="M1405.4,1041.7a1.82,1.82,0,0,1,1.81,1.83v338.53h-3.63V1043.53A1.83,1.83,0,0,1,1405.4,1041.7Z"/>
          <path class="cls-2" d="M1412.66,1041.7a1.83,1.83,0,0,1,1.82,1.83v338.53h-3.63V1043.53A1.82,1.82,0,0,1,1412.66,1041.7Z"/>
          <path class="cls-2" d="M1419.2,1041.7v340.36h-1.81V1043.53A1.82,1.82,0,0,1,1419.2,1041.7Z"/>
          <path class="cls-2" d="M1398.36,1041.7a1.82,1.82,0,0,1,1.81,1.83v338.53h-1.81Z"/>
        </g>
        <g>
          <rect class="cls-1" x="1347.67" y="1037.46" width="20.85" height="344.59" transform="translate(2716.19 2419.52) rotate(-180)"/>
          <rect class="cls-2" x="1347.67" y="1037.46" width="20.85" height="2.95" transform="translate(2716.19 2077.87) rotate(-180)"/>
          <path class="cls-2" d="M1354.71,1041.7a1.83,1.83,0,0,1,1.82,1.83v338.53h-3.64V1043.53A1.83,1.83,0,0,1,1354.71,1041.7Z"/>
          <path class="cls-2" d="M1362,1041.7a1.83,1.83,0,0,1,1.82,1.83v338.53h-3.64V1043.53A1.83,1.83,0,0,1,1362,1041.7Z"/>
          <path class="cls-2" d="M1368.52,1041.7v340.36h-1.82V1043.53A1.83,1.83,0,0,1,1368.52,1041.7Z"/>
          <path class="cls-2" d="M1347.67,1041.7a1.83,1.83,0,0,1,1.82,1.83v338.53h-1.82Z"/>
        </g>
        <g>
          <rect class="cls-1" x="44.85" y="1037.46" width="20.85" height="344.59"/>
          <rect class="cls-2" x="44.85" y="1037.46" width="20.85" height="2.95"/>
          <path class="cls-2" d="M58.66,1041.7a1.83,1.83,0,0,0-1.82,1.83v338.53h3.64V1043.53A1.83,1.83,0,0,0,58.66,1041.7Z"/>
          <path class="cls-2" d="M51.39,1041.7a1.83,1.83,0,0,0-1.81,1.83v338.53h3.63V1043.53A1.83,1.83,0,0,0,51.39,1041.7Z"/>
          <path class="cls-2" d="M44.85,1041.7v340.36h1.82V1043.53A1.83,1.83,0,0,0,44.85,1041.7Z"/>
          <path class="cls-2" d="M65.7,1041.7a1.83,1.83,0,0,0-1.82,1.83v338.53H65.7Z"/>
        </g>
        <g>
          <rect class="cls-1" x="95.54" y="1037.46" width="20.85" height="344.59"/>
          <rect class="cls-2" x="95.54" y="1037.46" width="20.85" height="2.95"/>
          <path class="cls-2" d="M109.35,1041.7a1.83,1.83,0,0,0-1.82,1.83v338.53h3.63V1043.53A1.82,1.82,0,0,0,109.35,1041.7Z"/>
          <path class="cls-2" d="M102.08,1041.7a1.83,1.83,0,0,0-1.82,1.83v338.53h3.64V1043.53A1.83,1.83,0,0,0,102.08,1041.7Z"/>
          <path class="cls-2" d="M95.54,1041.7v340.36h1.82V1043.53A1.83,1.83,0,0,0,95.54,1041.7Z"/>
          <path class="cls-2" d="M116.39,1041.7a1.83,1.83,0,0,0-1.82,1.83v338.53h1.82Z"/>
        </g>
        <g>
          <rect class="cls-1" x="146.22" y="1037.46" width="20.85" height="344.59"/>
          <rect class="cls-2" x="146.22" y="1037.46" width="20.85" height="2.95"/>
          <path class="cls-2" d="M160,1041.7a1.83,1.83,0,0,0-1.82,1.83v338.53h3.64V1043.53A1.83,1.83,0,0,0,160,1041.7Z"/>
          <path class="cls-2" d="M152.76,1041.7a1.82,1.82,0,0,0-1.81,1.83v338.53h3.63V1043.53A1.83,1.83,0,0,0,152.76,1041.7Z"/>
          <path class="cls-2" d="M146.22,1041.7v340.36H148V1043.53A1.83,1.83,0,0,0,146.22,1041.7Z"/>
          <path class="cls-2" d="M167.07,1041.7a1.83,1.83,0,0,0-1.82,1.83v338.53h1.82Z"/>
        </g>
        <g>
          <rect class="cls-1" x="196.91" y="1037.46" width="20.85" height="344.59"/>
          <rect class="cls-2" x="196.91" y="1037.46" width="20.85" height="2.95"/>
          <path class="cls-2" d="M210.72,1041.7a1.83,1.83,0,0,0-1.82,1.83v338.53h3.63V1043.53A1.82,1.82,0,0,0,210.72,1041.7Z"/>
          <path class="cls-2" d="M203.45,1041.7a1.83,1.83,0,0,0-1.82,1.83v338.53h3.64V1043.53A1.83,1.83,0,0,0,203.45,1041.7Z"/>
          <path class="cls-2" d="M196.91,1041.7v340.36h1.82V1043.53A1.83,1.83,0,0,0,196.91,1041.7Z"/>
          <path class="cls-2" d="M217.75,1041.7a1.83,1.83,0,0,0-1.81,1.83v338.53h1.81Z"/>
        </g>
        <g>
          <rect class="cls-1" x="247.59" y="1037.46" width="20.85" height="344.59"/>
          <rect class="cls-2" x="247.59" y="1037.46" width="20.85" height="2.95"/>
          <path class="cls-2" d="M261.4,1041.7a1.83,1.83,0,0,0-1.82,1.83v338.53h3.64V1043.53A1.83,1.83,0,0,0,261.4,1041.7Z"/>
          <path class="cls-2" d="M254.13,1041.7a1.82,1.82,0,0,0-1.81,1.83v338.53H256V1043.53A1.83,1.83,0,0,0,254.13,1041.7Z"/>
          <path class="cls-2" d="M247.59,1041.7v340.36h1.82V1043.53A1.83,1.83,0,0,0,247.59,1041.7Z"/>
          <path class="cls-2" d="M268.44,1041.7a1.83,1.83,0,0,0-1.82,1.83v338.53h1.82Z"/>
        </g>
        <g>
          <rect class="cls-1" x="298.28" y="1037.46" width="20.85" height="344.59"/>
          <rect class="cls-2" x="298.28" y="1037.46" width="20.85" height="2.95"/>
          <path class="cls-2" d="M312.09,1041.7a1.83,1.83,0,0,0-1.82,1.83v338.53h3.63V1043.53A1.82,1.82,0,0,0,312.09,1041.7Z"/>
          <path class="cls-2" d="M304.82,1041.7a1.83,1.83,0,0,0-1.82,1.83v338.53h3.64V1043.53A1.83,1.83,0,0,0,304.82,1041.7Z"/>
          <path class="cls-2" d="M298.28,1041.7v340.36h1.82V1043.53A1.83,1.83,0,0,0,298.28,1041.7Z"/>
          <path class="cls-2" d="M319.12,1041.7a1.83,1.83,0,0,0-1.81,1.83v338.53h1.81Z"/>
        </g>
        <g>
          <rect class="cls-1" x="348.96" y="1037.46" width="20.85" height="344.59"/>
          <rect class="cls-2" x="348.96" y="1037.46" width="20.85" height="2.95"/>
          <path class="cls-2" d="M362.77,1041.7a1.83,1.83,0,0,0-1.82,1.83v338.53h3.64V1043.53A1.83,1.83,0,0,0,362.77,1041.7Z"/>
          <path class="cls-2" d="M355.5,1041.7a1.82,1.82,0,0,0-1.81,1.83v338.53h3.63V1043.53A1.83,1.83,0,0,0,355.5,1041.7Z"/>
          <path class="cls-2" d="M349,1041.7v340.36h1.82V1043.53A1.83,1.83,0,0,0,349,1041.7Z"/>
          <path class="cls-2" d="M369.81,1041.7a1.83,1.83,0,0,0-1.82,1.83v338.53h1.82Z"/>
        </g>
        <g>
          <rect class="cls-1" x="399.65" y="1037.46" width="20.85" height="344.59"/>
          <rect class="cls-2" x="399.65" y="1037.46" width="20.85" height="2.95"/>
          <path class="cls-2" d="M413.46,1041.7a1.83,1.83,0,0,0-1.82,1.83v338.53h3.63V1043.53A1.82,1.82,0,0,0,413.46,1041.7Z"/>
          <path class="cls-2" d="M406.19,1041.7a1.83,1.83,0,0,0-1.82,1.83v338.53H408V1043.53A1.83,1.83,0,0,0,406.19,1041.7Z"/>
          <path class="cls-2" d="M399.65,1041.7v340.36h1.82V1043.53A1.83,1.83,0,0,0,399.65,1041.7Z"/>
          <path class="cls-2" d="M420.49,1041.7a1.83,1.83,0,0,0-1.81,1.83v338.53h1.81Z"/>
        </g>
        <g>
          <rect class="cls-1" x="450.33" y="1037.46" width="20.85" height="344.59"/>
          <rect class="cls-2" x="450.33" y="1037.46" width="20.85" height="2.95"/>
          <path class="cls-2" d="M464.14,1041.7a1.83,1.83,0,0,0-1.82,1.83v338.53H466V1043.53A1.83,1.83,0,0,0,464.14,1041.7Z"/>
          <path class="cls-2" d="M456.87,1041.7a1.82,1.82,0,0,0-1.81,1.83v338.53h3.63V1043.53A1.83,1.83,0,0,0,456.87,1041.7Z"/>
          <path class="cls-2" d="M450.33,1041.7v340.36h1.82V1043.53A1.83,1.83,0,0,0,450.33,1041.7Z"/>
          <path class="cls-2" d="M471.18,1041.7a1.83,1.83,0,0,0-1.82,1.83v338.53h1.82Z"/>
        </g>
        <g>
          <rect class="cls-1" x="501.02" y="1037.46" width="20.85" height="344.59"/>
          <rect class="cls-2" x="501.02" y="1037.46" width="20.85" height="2.95"/>
          <path class="cls-2" d="M514.83,1041.7a1.83,1.83,0,0,0-1.82,1.83v338.53h3.63V1043.53A1.82,1.82,0,0,0,514.83,1041.7Z"/>
          <path class="cls-2" d="M507.56,1041.7a1.83,1.83,0,0,0-1.82,1.83v338.53h3.64V1043.53A1.83,1.83,0,0,0,507.56,1041.7Z"/>
          <path class="cls-2" d="M501,1041.7v340.36h1.81V1043.53A1.82,1.82,0,0,0,501,1041.7Z"/>
          <path class="cls-2" d="M521.86,1041.7a1.82,1.82,0,0,0-1.81,1.83v338.53h1.81Z"/>
        </g>
        <g>
          <rect class="cls-1" x="551.7" y="1037.46" width="20.85" height="344.59"/>
          <rect class="cls-2" x="551.7" y="1037.46" width="20.85" height="2.95"/>
          <path class="cls-2" d="M565.51,1041.7a1.83,1.83,0,0,0-1.82,1.83v338.53h3.64V1043.53A1.83,1.83,0,0,0,565.51,1041.7Z"/>
          <path class="cls-2" d="M558.24,1041.7a1.82,1.82,0,0,0-1.81,1.83v338.53h3.63V1043.53A1.83,1.83,0,0,0,558.24,1041.7Z"/>
          <path class="cls-2" d="M551.7,1041.7v340.36h1.82V1043.53A1.83,1.83,0,0,0,551.7,1041.7Z"/>
          <path class="cls-2" d="M572.55,1041.7a1.83,1.83,0,0,0-1.82,1.83v338.53h1.82Z"/>
        </g>
        <rect class="cls-3" x="30.09" y="1017.09" width="527.31" height="20.32"/>
        <rect class="cls-4" x="30.09" y="1382.73" width="194" height="47.82"/>
        <rect class="cls-2" x="19.39" y="1391.52" width="194" height="47.82"/>
        <g>
          <rect class="cls-1" x="1854.52" y="1037.46" width="20.85" height="344.59" transform="translate(3729.89 2419.52) rotate(-180)"/>
          <rect class="cls-2" x="1854.52" y="1037.46" width="20.85" height="2.95" transform="translate(3729.89 2077.87) rotate(-180)"/>
          <path class="cls-2" d="M1861.56,1041.7a1.83,1.83,0,0,1,1.82,1.83v338.53h-3.64V1043.53A1.83,1.83,0,0,1,1861.56,1041.7Z"/>
          <path class="cls-2" d="M1868.83,1041.7a1.82,1.82,0,0,1,1.81,1.83v338.53H1867V1043.53A1.83,1.83,0,0,1,1868.83,1041.7Z"/>
          <path class="cls-2" d="M1875.37,1041.7v340.36h-1.82V1043.53A1.83,1.83,0,0,1,1875.37,1041.7Z"/>
          <path class="cls-2" d="M1854.52,1041.7a1.83,1.83,0,0,1,1.82,1.83v338.53h-1.82Z"/>
        </g>
        <g>
          <rect class="cls-1" x="1803.84" y="1037.46" width="20.85" height="344.59" transform="translate(3628.52 2419.52) rotate(-180)"/>
          <rect class="cls-2" x="1803.84" y="1037.46" width="20.85" height="2.95" transform="translate(3628.52 2077.87) rotate(-180)"/>
          <path class="cls-2" d="M1810.88,1041.7a1.83,1.83,0,0,1,1.81,1.83v338.53h-3.63V1043.53A1.83,1.83,0,0,1,1810.88,1041.7Z"/>
          <path class="cls-2" d="M1818.14,1041.7a1.83,1.83,0,0,1,1.82,1.83v338.53h-3.63V1043.53A1.82,1.82,0,0,1,1818.14,1041.7Z"/>
          <path class="cls-2" d="M1824.68,1041.7v340.36h-1.81V1043.53A1.82,1.82,0,0,1,1824.68,1041.7Z"/>
          <path class="cls-2" d="M1803.84,1041.7a1.82,1.82,0,0,1,1.81,1.83v338.53h-1.81Z"/>
        </g>
        <g>
          <rect class="cls-1" x="1753.15" y="1037.46" width="20.85" height="344.59" transform="translate(3527.15 2419.52) rotate(-180)"/>
          <rect class="cls-2" x="1753.15" y="1037.46" width="20.85" height="2.95" transform="translate(3527.15 2077.87) rotate(-180)"/>
          <path class="cls-2" d="M1760.19,1041.7a1.83,1.83,0,0,1,1.82,1.83v338.53h-3.64V1043.53A1.83,1.83,0,0,1,1760.19,1041.7Z"/>
          <path class="cls-2" d="M1767.46,1041.7a1.83,1.83,0,0,1,1.82,1.83v338.53h-3.64V1043.53A1.83,1.83,0,0,1,1767.46,1041.7Z"/>
          <path class="cls-2" d="M1774,1041.7v340.36h-1.82V1043.53A1.83,1.83,0,0,1,1774,1041.7Z"/>
          <path class="cls-2" d="M1753.15,1041.7a1.83,1.83,0,0,1,1.82,1.83v338.53h-1.82Z"/>
        </g>
        <g>
          <rect class="cls-1" x="1702.47" y="1037.46" width="20.85" height="344.59" transform="translate(3425.78 2419.52) rotate(-180)"/>
          <rect class="cls-2" x="1702.47" y="1037.46" width="20.85" height="2.95" transform="translate(3425.78 2077.87) rotate(-180)"/>
          <path class="cls-2" d="M1709.51,1041.7a1.83,1.83,0,0,1,1.81,1.83v338.53h-3.63V1043.53A1.83,1.83,0,0,1,1709.51,1041.7Z"/>
          <path class="cls-2" d="M1716.77,1041.7a1.83,1.83,0,0,1,1.82,1.83v338.53H1715V1043.53A1.82,1.82,0,0,1,1716.77,1041.7Z"/>
          <path class="cls-2" d="M1723.31,1041.7v340.36h-1.81V1043.53A1.82,1.82,0,0,1,1723.31,1041.7Z"/>
          <path class="cls-2" d="M1702.47,1041.7a1.82,1.82,0,0,1,1.81,1.83v338.53h-1.81Z"/>
        </g>
        <g>
          <rect class="cls-1" x="1651.78" y="1037.46" width="20.85" height="344.59" transform="translate(3324.41 2419.52) rotate(-180)"/>
          <rect class="cls-2" x="1651.78" y="1037.46" width="20.85" height="2.95" transform="translate(3324.41 2077.87) rotate(-180)"/>
          <path class="cls-2" d="M1658.82,1041.7a1.83,1.83,0,0,1,1.82,1.83v338.53H1657V1043.53A1.83,1.83,0,0,1,1658.82,1041.7Z"/>
          <path class="cls-2" d="M1666.09,1041.7a1.83,1.83,0,0,1,1.82,1.83v338.53h-3.64V1043.53A1.83,1.83,0,0,1,1666.09,1041.7Z"/>
          <path class="cls-2" d="M1672.63,1041.7v340.36h-1.82V1043.53A1.83,1.83,0,0,1,1672.63,1041.7Z"/>
          <path class="cls-2" d="M1651.78,1041.7a1.83,1.83,0,0,1,1.82,1.83v338.53h-1.82Z"/>
        </g>
        <g>
          <rect class="cls-1" x="1601.1" y="1037.46" width="20.85" height="344.59" transform="translate(3223.04 2419.52) rotate(-180)"/>
          <rect class="cls-2" x="1601.1" y="1037.46" width="20.85" height="2.95" transform="translate(3223.04 2077.87) rotate(-180)"/>
          <path class="cls-2" d="M1608.14,1041.7a1.82,1.82,0,0,1,1.81,1.83v338.53h-3.63V1043.53A1.83,1.83,0,0,1,1608.14,1041.7Z"/>
          <path class="cls-2" d="M1615.4,1041.7a1.83,1.83,0,0,1,1.82,1.83v338.53h-3.63V1043.53A1.82,1.82,0,0,1,1615.4,1041.7Z"/>
          <path class="cls-2" d="M1621.94,1041.7v340.36h-1.81V1043.53A1.82,1.82,0,0,1,1621.94,1041.7Z"/>
          <path class="cls-2" d="M1601.1,1041.7a1.82,1.82,0,0,1,1.81,1.83v338.53h-1.81Z"/>
        </g>
        <g>
          <rect class="cls-1" x="1550.41" y="1037.46" width="20.85" height="344.59" transform="translate(3121.67 2419.52) rotate(-180)"/>
          <rect class="cls-2" x="1550.41" y="1037.46" width="20.85" height="2.95" transform="translate(3121.67 2077.87) rotate(-180)"/>
          <path class="cls-2" d="M1557.45,1041.7a1.83,1.83,0,0,1,1.82,1.83v338.53h-3.64V1043.53A1.83,1.83,0,0,1,1557.45,1041.7Z"/>
          <path class="cls-2" d="M1564.72,1041.7a1.83,1.83,0,0,1,1.82,1.83v338.53h-3.64V1043.53A1.83,1.83,0,0,1,1564.72,1041.7Z"/>
          <path class="cls-2" d="M1571.26,1041.7v340.36h-1.82V1043.53A1.83,1.83,0,0,1,1571.26,1041.7Z"/>
          <path class="cls-2" d="M1550.41,1041.7a1.83,1.83,0,0,1,1.82,1.83v338.53h-1.82Z"/>
        </g>
        <g>
          <rect class="cls-1" x="1499.73" y="1037.46" width="20.85" height="344.59" transform="translate(3020.3 2419.52) rotate(-180)"/>
          <rect class="cls-2" x="1499.73" y="1037.46" width="20.85" height="2.95" transform="translate(3020.3 2077.87) rotate(-180)"/>
          <path class="cls-2" d="M1506.77,1041.7a1.82,1.82,0,0,1,1.81,1.83v338.53H1505V1043.53A1.83,1.83,0,0,1,1506.77,1041.7Z"/>
          <path class="cls-2" d="M1514,1041.7a1.83,1.83,0,0,1,1.82,1.83v338.53h-3.63V1043.53A1.82,1.82,0,0,1,1514,1041.7Z"/>
          <path class="cls-2" d="M1520.57,1041.7v340.36h-1.81V1043.53A1.82,1.82,0,0,1,1520.57,1041.7Z"/>
          <path class="cls-2" d="M1499.73,1041.7a1.82,1.82,0,0,1,1.81,1.83v338.53h-1.81Z"/>
        </g>
        <g>
          <rect class="cls-1" x="1449.04" y="1037.46" width="20.85" height="344.59" transform="translate(2918.93 2419.52) rotate(-180)"/>
          <rect class="cls-2" x="1449.04" y="1037.46" width="20.85" height="2.95" transform="translate(2918.93 2077.87) rotate(-180)"/>
          <path class="cls-2" d="M1456.08,1041.7a1.83,1.83,0,0,1,1.82,1.83v338.53h-3.64V1043.53A1.83,1.83,0,0,1,1456.08,1041.7Z"/>
          <path class="cls-2" d="M1463.35,1041.7a1.83,1.83,0,0,1,1.82,1.83v338.53h-3.64V1043.53A1.83,1.83,0,0,1,1463.35,1041.7Z"/>
          <path class="cls-2" d="M1469.89,1041.7v340.36h-1.82V1043.53A1.83,1.83,0,0,1,1469.89,1041.7Z"/>
          <path class="cls-2" d="M1449,1041.7a1.83,1.83,0,0,1,1.82,1.83v338.53H1449Z"/>
        </g>
        <rect class="cls-3" x="1362.82" y="1017.09" width="527.31" height="20.29" transform="translate(3252.95 2054.47) rotate(-180)"/>
        <rect class="cls-4" x="1696.13" y="1382.73" width="194" height="47.82" transform="translate(3586.26 2813.28) rotate(-180)"/>
        <rect class="cls-2" x="1706.84" y="1391.52" width="194" height="47.82" transform="translate(3607.67 2830.85) rotate(-180)"/>
        <rect class="cls-2" y="970.12" width="1923.24" height="46.96"/>
        <rect class="cls-5" x="387.53" y="681.11" width="44.74" height="704.18"/>
        <rect x="343.11" y="1226.83" width="151.14" height="142.5"/>
        <rect x="384.05" y="652.81" width="52.5" height="35.4"/>
        <rect class="cls-5" x="1487.95" y="681.11" width="44.74" height="704.18" transform="translate(3020.64 2066.41) rotate(-180)"/>
        <rect x="1483.68" y="652.81" width="52.5" height="35.4" transform="translate(3019.85 1341.02) rotate(-180)"/>
        <rect x="1425.97" y="1226.83" width="151.14" height="142.5" transform="translate(3003.08 2596.16) rotate(-180)"/>
        <path class="cls-6" d="M1446.37,1235.49s-13.23-291.35-13.45-295-39-87.67-39-87.67a641.34,641.34,0,0,1-171-188.37h-.37V180.93H697.21V664.45a641.2,641.2,0,0,1-171,188.37s-38.76,84-39,87.67-13.45,295-13.45,295L305,1409.13h1310Z"/>
        <rect x="712.66" y="936.78" width="499.97" height="336.33"/>
        <rect class="cls-5" x="712.66" y="944.82" width="42.63" height="310.28"/>
        <rect class="cls-1" x="707.19" y="1249.17" width="54.48" height="5.93" rx="0.76" ry="0.76"/>
        <polygon class="cls-1" points="708.46 936.78 712.71 944.82 754.92 944.82 758.72 936.78 708.46 936.78"/>
        <rect class="cls-4" x="712.71" y="944.82" width="42.59" height="7.87"/>
        <rect class="cls-4" x="712.71" y="1241.31" width="42.59" height="7.87"/>
        <rect class="cls-5" x="1170.36" y="944.82" width="42.63" height="310.28"/>
        <rect class="cls-1" x="1164.89" y="1249.17" width="54.48" height="5.93" rx="0.76" ry="0.76"/>
        <polygon class="cls-1" points="1166.16 936.78 1170.4 944.82 1212.62 944.82 1216.42 936.78 1166.16 936.78"/>
        <rect class="cls-4" x="1170.4" y="944.82" width="42.59" height="7.87"/>
        <rect class="cls-4" x="1170.4" y="1241.31" width="42.59" height="7.87"/>
        <rect class="cls-5" x="941.51" y="944.82" width="42.63" height="310.28"/>
        <rect class="cls-1" x="936.04" y="1249.17" width="54.48" height="5.93" rx="0.76" ry="0.76"/>
        <polygon class="cls-1" points="937.31 936.78 941.55 944.82 983.77 944.82 987.57 936.78 937.31 936.78"/>
        <rect class="cls-4" x="941.56" y="944.82" width="42.59" height="7.87"/>
        <rect class="cls-4" x="941.56" y="1241.31" width="42.59" height="7.87"/>
        <g>
          <rect class="cls-3" x="718.87" y="952.68" width="4" height="288.62"/>
          <rect class="cls-3" x="731.59" y="952.68" width="4" height="288.62"/>
          <rect class="cls-3" x="744.31" y="952.68" width="4" height="288.62"/>
          <rect class="cls-3" x="1176.57" y="952.68" width="4" height="288.62"/>
          <rect class="cls-3" x="1189.29" y="952.68" width="4" height="288.62"/>
          <rect class="cls-3" x="1202.01" y="952.68" width="4" height="288.62"/>
          <rect class="cls-3" x="947.72" y="952.68" width="4" height="288.62"/>
          <rect class="cls-3" x="960.44" y="952.68" width="4" height="288.62"/>
          <rect class="cls-3" x="973.16" y="952.68" width="4" height="288.62"/>
        </g>
        <rect class="cls-3" x="486.5" y="844.28" width="946.42" height="92.5"/>
        <rect class="cls-2" x="468.72" y="844.28" width="981.46" height="25.99"/>
        <rect class="cls-4" x="1263.01" y="589.95" width="94.39" height="678.38"/>
        <rect class="cls-7" x="1302.81" y="598.22" width="14.77" height="670.1"/>
        <rect class="cls-7" x="1277.81" y="598.22" width="14.77" height="670.1"/>
        <rect class="cls-7" x="1328.46" y="598.22" width="14.77" height="670.1"/>
        <rect class="cls-4" x="562.65" y="589.95" width="94.39" height="678.38"/>
        <rect class="cls-7" x="602.45" y="598.22" width="14.77" height="670.1"/>
        <rect class="cls-7" x="577.44" y="598.22" width="14.77" height="670.1"/>
        <rect class="cls-7" x="628.1" y="598.22" width="14.77" height="670.1"/>
        <rect class="cls-5" x="552.62" y="546.08" width="114.9" height="52.14"/>
        <rect class="cls-5" x="1252.75" y="546.08" width="114.9" height="52.14"/>
        <rect class="cls-5" x="473.74" y="1255.1" width="943.16" height="50.16"/>
        <path class="cls-2" d="M1575.09,1352.2H345.41l-24.68,24.7H1599.78Z"/>
        <path class="cls-2" d="M1528.39,1305.26H392.12c-.72.81-9.11,9.25-22.06,22.24H1550.44C1537.49,1314.51,1529.11,1306.07,1528.39,1305.26Z"/>
        <path class="cls-5" d="M1550.44,1327.5H370.06c-7,7-15.4,15.45-24.65,24.7H1575.09Z"/>
        <path class="cls-5" d="M1698.63,1475.69H221.88L190,1507.52H1730.5Z"/>
        <path class="cls-5" d="M1649.19,1426.29H271.32L246.6,1451H1673.9Z"/>
        <path class="cls-2" d="M1673.9,1451H246.6l-24.72,24.7H1698.63Z"/>
        <path class="cls-2" d="M1624.48,1401.59H296l-24.71,24.7H1649.19C1641.05,1418.16,1632.74,1409.86,1624.48,1401.59Z"/>
        <path class="cls-5" d="M1599.78,1376.9h-1279L296,1401.59H1624.48Z"/>
        <path class="cls-2" d="M960.14,827.41h.25c-40.56,0-124.06-42.45-165-66.59l-.17-32.52a230.7,230.7,0,0,1,25-1.2h280.29a230.3,230.3,0,0,1,25,1.2l-.23,32.57c-41,24.14-124.42,66.54-165,66.54h.24"/>
        <path class="cls-4" d="M1125.31,761.11s-37.66-19.63-165.06-19.63-165.06,19.63-165.06,19.63V706.93S808,648.84,960.25,648.84s165.06,58.09,165.06,58.09v54.18"/>
        <g>
          <g>
            <path class="cls-8" d="M907.93,660.3c-1,.26-15.73,4.1-15.73,21.89,0,13.86.83,38.91,1.2,49.28q14.79-1,32.31-1.57V678.42C925.71,671.58,921.61,656.88,907.93,660.3Z"/>
            <path class="cls-9" d="M860.28,671.24c-10.14,2.4-10.64,19-10.83,31.37-.12,8.18.78,24,1.36,33.15,8.94-1.24,19.13-2.4,30.72-3.38-.17-11.68-.72-40.59-2-50C878,670.56,870,669,860.28,671.24Z"/>
            <path class="cls-10" d="M811.63,698c-1.14,6.5-1,31.91-.81,45.62,5.56-1.53,12.78-3.24,21.91-4.93-.15-12.87-.54-37.74-1.29-43.72C830.3,685.83,813.89,685.15,811.63,698Z"/>
          </g>
          <g>
            <path class="cls-11" d="M1012.25,660.3c1,.26,15.73,4.1,15.73,21.89,0,13.86-.83,38.91-1.19,49.28-9.87-.67-20.62-1.21-32.32-1.57V678.42C994.47,671.58,998.57,656.88,1012.25,660.3Z"/>
            <path class="cls-12" d="M1059.9,671.24c10.15,2.4,10.64,19,10.83,31.37.13,8.18-.77,24-1.36,33.15-8.93-1.24-19.13-2.4-30.72-3.38.17-11.68.72-40.59,2-50C1042.23,670.56,1050.19,669,1059.9,671.24Z"/>
            <path class="cls-13" d="M1108.55,698c1.14,6.5,1,31.91.81,45.62-5.56-1.53-12.77-3.24-21.91-4.93.16-12.87.54-37.74,1.29-43.72C1089.88,685.83,1106.29,685.15,1108.55,698Z"/>
          </g>
          <path class="cls-14" d="M978.23,669.76c-.38-8.13-8.45-14.62-18.38-14.62-10.16,0-18.41,6.81-18.41,15.21a13.1,13.1,0,0,0,.14,1.79v57.24h36.68V669.76Z"/>
        </g>
        <path class="cls-15" d="M1029.38,283.19a68.59,68.59,0,0,0-137.18,0c0,.24,0,.48,0,.71h0V569.64h137.18V283.9h0C1029.37,283.67,1029.38,283.43,1029.38,283.19Z"/>
        <path class="cls-15" d="M853.21,376.1a56.31,56.31,0,0,0-112.62,0c0,.2,0,.39,0,.59h0V567.28H853.21V376.69h0C853.2,376.49,853.21,376.3,853.21,376.1Z"/>
        <path class="cls-15" d="M1179,376.1a56.31,56.31,0,0,0-112.62,0c0,.2,0,.39,0,.59h0V567.28H1179V376.69h0C1179,376.49,1179,376.3,1179,376.1Z"/>
        <path class="cls-7" d="M696.78,611.06s60-21.58,262.87-21.58,262.87,21.58,262.87,21.58V575.43s-60-21.58-262.87-21.58-262.87,21.58-262.87,21.58Z"/>
        <path class="cls-3" d="M861.53,1511.09H343.1V1381.72h145c24.23,0,59-3.74,87.27-21.57,16.8-10.62,23.39-21.37,23.46-21.48l3.51-5.83,3.47,5.85c.25.41,26.87,43,110.72,43h145Zm-508.84-8.51H851l.12-112.35H716.53c-72.59,0-104.4-30.17-114.21-42.25-9.82,12.08-41.62,42.25-114.22,42.25H352.46Z"/>
        <g>
          <path class="cls-3" d="M353.13,1507.52a.69.69,0,0,1-.68-.69V1386a.69.69,0,1,1,1.37,0v120.85A.69.69,0,0,1,353.13,1507.52Z"/>
          <path class="cls-3" d="M359.52,1507.52a.69.69,0,0,1-.69-.69V1386a.69.69,0,0,1,.69-.69.68.68,0,0,1,.68.69v120.85A.68.68,0,0,1,359.52,1507.52Z"/>
          <path class="cls-3" d="M365.9,1507.52a.68.68,0,0,1-.68-.69V1386a.68.68,0,1,1,1.36,0v120.85A.68.68,0,0,1,365.9,1507.52Z"/>
          <path class="cls-3" d="M372.28,1507.52a.69.69,0,0,1-.68-.69V1386a.69.69,0,1,1,1.37,0v120.85A.69.69,0,0,1,372.28,1507.52Z"/>
          <path class="cls-3" d="M378.67,1507.52a.69.69,0,0,1-.69-.69V1386a.69.69,0,0,1,.69-.69.68.68,0,0,1,.68.69v120.85A.68.68,0,0,1,378.67,1507.52Z"/>
          <path class="cls-3" d="M385.05,1507.52a.68.68,0,0,1-.68-.69V1386a.68.68,0,0,1,.68-.69.69.69,0,0,1,.69.69v120.85A.69.69,0,0,1,385.05,1507.52Z"/>
          <path class="cls-3" d="M391.43,1507.52a.69.69,0,0,1-.68-.69V1386a.69.69,0,1,1,1.37,0v120.85A.69.69,0,0,1,391.43,1507.52Z"/>
          <path class="cls-3" d="M397.82,1507.52a.69.69,0,0,1-.69-.69V1386a.69.69,0,0,1,.69-.69.68.68,0,0,1,.68.69v120.85A.68.68,0,0,1,397.82,1507.52Z"/>
          <path class="cls-3" d="M404.2,1507.52a.68.68,0,0,1-.68-.69V1386a.68.68,0,0,1,.68-.69.69.69,0,0,1,.69.69v120.85A.69.69,0,0,1,404.2,1507.52Z"/>
          <path class="cls-3" d="M410.58,1507.52a.69.69,0,0,1-.68-.69V1386a.69.69,0,1,1,1.37,0v120.85A.69.69,0,0,1,410.58,1507.52Z"/>
          <path class="cls-3" d="M417,1507.52a.69.69,0,0,1-.69-.69V1386a.69.69,0,0,1,.69-.69.68.68,0,0,1,.68.69v120.85A.68.68,0,0,1,417,1507.52Z"/>
          <path class="cls-3" d="M423.35,1507.52a.68.68,0,0,1-.68-.69V1386a.68.68,0,0,1,.68-.69.69.69,0,0,1,.69.69v120.85A.69.69,0,0,1,423.35,1507.52Z"/>
          <path class="cls-3" d="M429.74,1507.52a.69.69,0,0,1-.69-.69V1386a.69.69,0,1,1,1.37,0v120.85A.69.69,0,0,1,429.74,1507.52Z"/>
          <path class="cls-3" d="M436.12,1507.52a.69.69,0,0,1-.69-.69V1386a.69.69,0,0,1,.69-.69.68.68,0,0,1,.68.69v120.85A.68.68,0,0,1,436.12,1507.52Z"/>
          <path class="cls-3" d="M442.5,1507.52a.68.68,0,0,1-.68-.69V1386a.68.68,0,0,1,.68-.69.69.69,0,0,1,.69.69v120.85A.69.69,0,0,1,442.5,1507.52Z"/>
          <path class="cls-3" d="M448.89,1507.52a.69.69,0,0,1-.69-.69V1386a.69.69,0,1,1,1.37,0v120.85A.69.69,0,0,1,448.89,1507.52Z"/>
          <path class="cls-3" d="M455.27,1507.52a.68.68,0,0,1-.68-.69V1386a.68.68,0,1,1,1.36,0v120.85A.68.68,0,0,1,455.27,1507.52Z"/>
          <path class="cls-3" d="M461.65,1507.52a.68.68,0,0,1-.68-.69V1386a.68.68,0,0,1,.68-.69.69.69,0,0,1,.69.69v120.85A.69.69,0,0,1,461.65,1507.52Z"/>
          <path class="cls-3" d="M468,1507.52a.69.69,0,0,1-.69-.69V1386a.69.69,0,1,1,1.37,0v120.85A.69.69,0,0,1,468,1507.52Z"/>
          <path class="cls-3" d="M474.42,1507.52a.68.68,0,0,1-.68-.69V1386a.68.68,0,1,1,1.36,0v120.85A.68.68,0,0,1,474.42,1507.52Z"/>
          <path class="cls-3" d="M480.8,1507.52a.69.69,0,0,1-.68-.69V1386a.69.69,0,1,1,1.37,0v120.85A.69.69,0,0,1,480.8,1507.52Z"/>
          <path class="cls-3" d="M487.19,1507.52a.69.69,0,0,1-.69-.69V1386a.69.69,0,1,1,1.37,0v120.85A.69.69,0,0,1,487.19,1507.52Z"/>
          <path class="cls-3" d="M493.57,1507.52a.68.68,0,0,1-.68-.69V1386a.68.68,0,1,1,1.36,0v120.85A.68.68,0,0,1,493.57,1507.52Z"/>
          <path class="cls-3" d="M500,1507.52a.69.69,0,0,1-.68-.69V1386a.69.69,0,1,1,1.37,0v120.85A.69.69,0,0,1,500,1507.52Z"/>
          <path class="cls-3" d="M506.34,1507.52a.69.69,0,0,1-.69-.69V1386a.69.69,0,1,1,1.37,0v120.85A.69.69,0,0,1,506.34,1507.52Z"/>
          <path class="cls-3" d="M512.72,1507.52a.68.68,0,0,1-.68-.69V1384.37a.68.68,0,1,1,1.36,0v122.46A.68.68,0,0,1,512.72,1507.52Z"/>
          <path class="cls-3" d="M519.1,1507.52a.69.69,0,0,1-.68-.69V1383.47a.69.69,0,0,1,1.37,0v123.36A.69.69,0,0,1,519.1,1507.52Z"/>
          <path class="cls-3" d="M525.49,1507.52a.69.69,0,0,1-.69-.69V1383.47a.69.69,0,0,1,1.37,0v123.36A.69.69,0,0,1,525.49,1507.52Z"/>
          <path class="cls-3" d="M531.87,1507.52a.68.68,0,0,1-.68-.69V1381.15a.68.68,0,0,1,1.36,0v125.68A.68.68,0,0,1,531.87,1507.52Z"/>
          <path class="cls-3" d="M538.25,1507.52a.69.69,0,0,1-.68-.69V1380.26a.69.69,0,0,1,1.37,0v126.57A.69.69,0,0,1,538.25,1507.52Z"/>
          <path class="cls-3" d="M544.64,1507.52a.69.69,0,0,1-.69-.69v-128.9a.68.68,0,0,1,.69-.68.67.67,0,0,1,.68.68v128.9A.68.68,0,0,1,544.64,1507.52Z"/>
          <path class="cls-3" d="M551,1507.52a.68.68,0,0,1-.68-.69v-131a.68.68,0,1,1,1.36,0v131A.68.68,0,0,1,551,1507.52Z"/>
          <path class="cls-3" d="M557.4,1507.52a.69.69,0,0,1-.68-.69V1373.64a.69.69,0,0,1,1.37,0v133.19A.69.69,0,0,1,557.4,1507.52Z"/>
          <path class="cls-3" d="M563.79,1507.52a.69.69,0,0,1-.69-.69V1371.49a.69.69,0,0,1,.69-.68.68.68,0,0,1,.68.68v135.34A.68.68,0,0,1,563.79,1507.52Z"/>
          <path class="cls-3" d="M570.17,1507.52a.68.68,0,0,1-.68-.69V1368.45a.68.68,0,0,1,.68-.68.69.69,0,0,1,.69.68v138.38A.69.69,0,0,1,570.17,1507.52Z"/>
          <path class="cls-3" d="M576.55,1507.52a.69.69,0,0,1-.68-.69V1364.34a.69.69,0,0,1,1.37,0v142.49A.69.69,0,0,1,576.55,1507.52Z"/>
          <path class="cls-3" d="M582.94,1507.52a.69.69,0,0,1-.69-.69V1360.41a.69.69,0,0,1,.69-.69.68.68,0,0,1,.68.69v146.42A.68.68,0,0,1,582.94,1507.52Z"/>
          <path class="cls-3" d="M589.32,1507.52a.68.68,0,0,1-.68-.69V1355.4a.67.67,0,0,1,.68-.68.68.68,0,0,1,.69.68v151.43A.69.69,0,0,1,589.32,1507.52Z"/>
          <path class="cls-3" d="M595.71,1507.52a.69.69,0,0,1-.69-.69V1349.1a.69.69,0,0,1,1.37,0v157.73A.69.69,0,0,1,595.71,1507.52Z"/>
          <path class="cls-3" d="M602.09,1507.52h0a.69.69,0,0,1-.69-.69l.23-165.92a.69.69,0,0,1,.69-.68h0a.68.68,0,0,1,.68.69l-.23,165.91A.68.68,0,0,1,602.09,1507.52Z"/>
          <path class="cls-3" d="M608.47,1507.52a.68.68,0,0,1-.68-.69V1348.62a.68.68,0,0,1,.68-.68.69.69,0,0,1,.69.68v158.21A.69.69,0,0,1,608.47,1507.52Z"/>
          <path class="cls-3" d="M614.86,1507.52a.69.69,0,0,1-.69-.69V1354.27a.69.69,0,1,1,1.37,0v152.56A.69.69,0,0,1,614.86,1507.52Z"/>
          <path class="cls-3" d="M621.24,1507.52a.69.69,0,0,1-.69-.69V1359.69a.68.68,0,0,1,.69-.68.67.67,0,0,1,.68.68v147.14A.68.68,0,0,1,621.24,1507.52Z"/>
          <path class="cls-3" d="M627.62,1507.52a.68.68,0,0,1-.68-.69V1364.09a.68.68,0,0,1,.68-.68.69.69,0,0,1,.69.68v142.74A.69.69,0,0,1,627.62,1507.52Z"/>
          <path class="cls-3" d="M634,1507.52a.69.69,0,0,1-.69-.69V1367.5a.69.69,0,0,1,1.37,0v139.33A.69.69,0,0,1,634,1507.52Z"/>
          <path class="cls-3" d="M640.39,1507.52a.68.68,0,0,1-.68-.69V1371a.68.68,0,0,1,1.36,0v135.82A.68.68,0,0,1,640.39,1507.52Z"/>
          <path class="cls-3" d="M646.77,1507.52a.68.68,0,0,1-.68-.69v-133a.68.68,0,0,1,.68-.69.69.69,0,0,1,.69.69v133A.69.69,0,0,1,646.77,1507.52Z"/>
          <path class="cls-3" d="M653.16,1507.52a.69.69,0,0,1-.69-.69V1376.21a.69.69,0,1,1,1.37,0v130.62A.69.69,0,0,1,653.16,1507.52Z"/>
          <path class="cls-3" d="M659.54,1507.52a.68.68,0,0,1-.68-.69v-128.9a.68.68,0,0,1,1.36,0v128.9A.68.68,0,0,1,659.54,1507.52Z"/>
          <path class="cls-3" d="M665.92,1507.52a.69.69,0,0,1-.68-.69V1380.08a.69.69,0,1,1,1.37,0v126.75A.69.69,0,0,1,665.92,1507.52Z"/>
          <path class="cls-3" d="M672.31,1507.52a.69.69,0,0,1-.69-.69V1381.15a.69.69,0,0,1,1.37,0v125.68A.69.69,0,0,1,672.31,1507.52Z"/>
          <path class="cls-3" d="M678.69,1507.52a.68.68,0,0,1-.68-.69V1383.47a.68.68,0,1,1,1.36,0v123.36A.68.68,0,0,1,678.69,1507.52Z"/>
          <path class="cls-3" d="M685.07,1507.52a.69.69,0,0,1-.68-.69V1383.47a.69.69,0,0,1,1.37,0v123.36A.69.69,0,0,1,685.07,1507.52Z"/>
          <path class="cls-3" d="M691.46,1507.52a.69.69,0,0,1-.69-.69V1384.37a.69.69,0,1,1,1.37,0v122.46A.69.69,0,0,1,691.46,1507.52Z"/>
          <path class="cls-3" d="M697.84,1507.52a.68.68,0,0,1-.68-.69V1386a.68.68,0,1,1,1.36,0v120.85A.68.68,0,0,1,697.84,1507.52Z"/>
          <path class="cls-3" d="M704.22,1507.52a.69.69,0,0,1-.68-.69V1386a.69.69,0,1,1,1.37,0v120.85A.69.69,0,0,1,704.22,1507.52Z"/>
          <path class="cls-3" d="M710.61,1507.52a.69.69,0,0,1-.69-.69V1386a.69.69,0,1,1,1.37,0v120.85A.69.69,0,0,1,710.61,1507.52Z"/>
          <path class="cls-3" d="M717,1507.52a.68.68,0,0,1-.68-.69V1386a.68.68,0,1,1,1.36,0v120.85A.68.68,0,0,1,717,1507.52Z"/>
          <path class="cls-3" d="M723.37,1507.52a.69.69,0,0,1-.68-.69V1386a.69.69,0,1,1,1.37,0v120.85A.69.69,0,0,1,723.37,1507.52Z"/>
          <path class="cls-3" d="M729.76,1507.52a.69.69,0,0,1-.69-.69V1386a.69.69,0,1,1,1.37,0v120.85A.69.69,0,0,1,729.76,1507.52Z"/>
          <path class="cls-3" d="M736.14,1507.52a.68.68,0,0,1-.68-.69V1386a.68.68,0,1,1,1.36,0v120.85A.68.68,0,0,1,736.14,1507.52Z"/>
          <path class="cls-3" d="M742.52,1507.52a.69.69,0,0,1-.68-.69V1386a.69.69,0,1,1,1.37,0v120.85A.69.69,0,0,1,742.52,1507.52Z"/>
          <path class="cls-3" d="M748.91,1507.52a.69.69,0,0,1-.69-.69V1386a.69.69,0,0,1,.69-.69.68.68,0,0,1,.68.69v120.85A.68.68,0,0,1,748.91,1507.52Z"/>
          <path class="cls-3" d="M755.29,1507.52a.68.68,0,0,1-.68-.69V1386a.68.68,0,1,1,1.36,0v120.85A.68.68,0,0,1,755.29,1507.52Z"/>
          <path class="cls-3" d="M761.67,1507.52a.69.69,0,0,1-.68-.69V1386a.69.69,0,1,1,1.37,0v120.85A.69.69,0,0,1,761.67,1507.52Z"/>
          <path class="cls-3" d="M768.06,1507.52a.69.69,0,0,1-.69-.69V1386a.69.69,0,0,1,.69-.69.68.68,0,0,1,.68.69v120.85A.68.68,0,0,1,768.06,1507.52Z"/>
          <path class="cls-3" d="M774.44,1507.52a.68.68,0,0,1-.68-.69V1386a.68.68,0,0,1,.68-.69.69.69,0,0,1,.69.69v120.85A.69.69,0,0,1,774.44,1507.52Z"/>
          <path class="cls-3" d="M780.82,1507.52a.69.69,0,0,1-.68-.69V1386a.69.69,0,1,1,1.37,0v120.85A.69.69,0,0,1,780.82,1507.52Z"/>
          <path class="cls-3" d="M787.21,1507.52a.69.69,0,0,1-.69-.69V1386a.69.69,0,0,1,.69-.69.68.68,0,0,1,.68.69v120.85A.68.68,0,0,1,787.21,1507.52Z"/>
          <path class="cls-3" d="M793.59,1507.52a.68.68,0,0,1-.68-.69V1386a.68.68,0,0,1,.68-.69.69.69,0,0,1,.69.69v120.85A.69.69,0,0,1,793.59,1507.52Z"/>
          <path class="cls-3" d="M800,1507.52a.69.69,0,0,1-.69-.69V1386a.69.69,0,1,1,1.37,0v120.85A.69.69,0,0,1,800,1507.52Z"/>
          <path class="cls-3" d="M806.36,1507.52a.69.69,0,0,1-.69-.69V1386a.69.69,0,0,1,.69-.69.68.68,0,0,1,.68.69v120.85A.68.68,0,0,1,806.36,1507.52Z"/>
          <path class="cls-3" d="M812.74,1507.52a.68.68,0,0,1-.68-.69V1386a.68.68,0,0,1,.68-.69.69.69,0,0,1,.69.69v120.85A.69.69,0,0,1,812.74,1507.52Z"/>
          <path class="cls-3" d="M819.13,1507.52a.69.69,0,0,1-.69-.69V1386a.69.69,0,1,1,1.37,0v120.85A.69.69,0,0,1,819.13,1507.52Z"/>
          <path class="cls-3" d="M825.51,1507.52a.69.69,0,0,1-.69-.69V1386a.69.69,0,0,1,.69-.69.68.68,0,0,1,.68.69v120.85A.68.68,0,0,1,825.51,1507.52Z"/>
          <path class="cls-3" d="M831.89,1507.52a.68.68,0,0,1-.68-.69V1386a.68.68,0,0,1,.68-.69.69.69,0,0,1,.69.69v120.85A.69.69,0,0,1,831.89,1507.52Z"/>
          <path class="cls-3" d="M838.28,1507.52a.69.69,0,0,1-.69-.69V1386a.69.69,0,1,1,1.37,0v120.85A.69.69,0,0,1,838.28,1507.52Z"/>
          <path class="cls-3" d="M844.66,1507.52a.68.68,0,0,1-.68-.69V1386a.68.68,0,1,1,1.36,0v120.85A.68.68,0,0,1,844.66,1507.52Z"/>
          <path class="cls-3" d="M851,1507.52a.68.68,0,0,1-.68-.69V1386a.68.68,0,0,1,.68-.69.69.69,0,0,1,.69.69v120.85A.69.69,0,0,1,851,1507.52Z"/>
        </g>
        <path class="cls-3" d="M1574.89,1511.09H1056.46V1381.72h145c24.24,0,59-3.74,87.28-21.57,16.8-10.62,23.39-21.37,23.45-21.48l3.51-5.83,3.48,5.85c.25.41,26.86,43,110.72,43h145ZM1066,1502.58H1564.4l.12-112.35H1429.89c-72.6,0-104.4-30.17-114.22-42.25-9.81,12.08-41.62,42.25-114.22,42.25H1065.81Z"/>
        <g>
          <path class="cls-3" d="M1066.49,1507.52a.68.68,0,0,1-.68-.69V1386a.68.68,0,1,1,1.36,0v120.85A.68.68,0,0,1,1066.49,1507.52Z"/>
          <path class="cls-3" d="M1072.87,1507.52a.69.69,0,0,1-.68-.69V1386a.69.69,0,1,1,1.37,0v120.85A.69.69,0,0,1,1072.87,1507.52Z"/>
          <path class="cls-3" d="M1079.26,1507.52a.69.69,0,0,1-.69-.69V1386a.69.69,0,1,1,1.37,0v120.85A.69.69,0,0,1,1079.26,1507.52Z"/>
          <path class="cls-3" d="M1085.64,1507.52a.68.68,0,0,1-.68-.69V1386a.68.68,0,1,1,1.36,0v120.85A.68.68,0,0,1,1085.64,1507.52Z"/>
          <path class="cls-3" d="M1092,1507.52a.69.69,0,0,1-.68-.69V1386a.69.69,0,1,1,1.37,0v120.85A.69.69,0,0,1,1092,1507.52Z"/>
          <path class="cls-3" d="M1098.41,1507.52a.69.69,0,0,1-.69-.69V1386a.69.69,0,1,1,1.37,0v120.85A.69.69,0,0,1,1098.41,1507.52Z"/>
          <path class="cls-3" d="M1104.79,1507.52a.68.68,0,0,1-.68-.69V1386a.68.68,0,1,1,1.36,0v120.85A.68.68,0,0,1,1104.79,1507.52Z"/>
          <path class="cls-3" d="M1111.17,1507.52a.69.69,0,0,1-.68-.69V1386a.69.69,0,1,1,1.37,0v120.85A.69.69,0,0,1,1111.17,1507.52Z"/>
          <path class="cls-3" d="M1117.56,1507.52a.69.69,0,0,1-.69-.69V1386a.69.69,0,0,1,.69-.69.68.68,0,0,1,.68.69v120.85A.68.68,0,0,1,1117.56,1507.52Z"/>
          <path class="cls-3" d="M1123.94,1507.52a.68.68,0,0,1-.68-.69V1386a.68.68,0,1,1,1.36,0v120.85A.68.68,0,0,1,1123.94,1507.52Z"/>
          <path class="cls-3" d="M1130.32,1507.52a.69.69,0,0,1-.68-.69V1386a.69.69,0,1,1,1.37,0v120.85A.69.69,0,0,1,1130.32,1507.52Z"/>
          <path class="cls-3" d="M1136.71,1507.52a.69.69,0,0,1-.69-.69V1386a.69.69,0,0,1,.69-.69.68.68,0,0,1,.68.69v120.85A.68.68,0,0,1,1136.71,1507.52Z"/>
          <path class="cls-3" d="M1143.09,1507.52a.68.68,0,0,1-.68-.69V1386a.68.68,0,0,1,.68-.69.69.69,0,0,1,.69.69v120.85A.69.69,0,0,1,1143.09,1507.52Z"/>
          <path class="cls-3" d="M1149.47,1507.52a.69.69,0,0,1-.68-.69V1386a.69.69,0,1,1,1.37,0v120.85A.69.69,0,0,1,1149.47,1507.52Z"/>
          <path class="cls-3" d="M1155.86,1507.52a.69.69,0,0,1-.69-.69V1386a.69.69,0,0,1,.69-.69.68.68,0,0,1,.68.69v120.85A.68.68,0,0,1,1155.86,1507.52Z"/>
          <path class="cls-3" d="M1162.24,1507.52a.68.68,0,0,1-.68-.69V1386a.68.68,0,0,1,.68-.69.69.69,0,0,1,.69.69v120.85A.69.69,0,0,1,1162.24,1507.52Z"/>
          <path class="cls-3" d="M1168.63,1507.52a.69.69,0,0,1-.69-.69V1386a.69.69,0,1,1,1.37,0v120.85A.69.69,0,0,1,1168.63,1507.52Z"/>
          <path class="cls-3" d="M1175,1507.52a.69.69,0,0,1-.69-.69V1386a.69.69,0,0,1,.69-.69.68.68,0,0,1,.68.69v120.85A.68.68,0,0,1,1175,1507.52Z"/>
          <path class="cls-3" d="M1181.39,1507.52a.68.68,0,0,1-.68-.69V1386a.68.68,0,0,1,.68-.69.69.69,0,0,1,.69.69v120.85A.69.69,0,0,1,1181.39,1507.52Z"/>
          <path class="cls-3" d="M1187.78,1507.52a.69.69,0,0,1-.69-.69V1386a.69.69,0,1,1,1.37,0v120.85A.69.69,0,0,1,1187.78,1507.52Z"/>
          <path class="cls-3" d="M1194.16,1507.52a.69.69,0,0,1-.69-.69V1386a.69.69,0,0,1,.69-.69.68.68,0,0,1,.68.69v120.85A.68.68,0,0,1,1194.16,1507.52Z"/>
          <path class="cls-3" d="M1200.54,1507.52a.68.68,0,0,1-.68-.69V1386a.68.68,0,0,1,.68-.69.69.69,0,0,1,.69.69v120.85A.69.69,0,0,1,1200.54,1507.52Z"/>
          <path class="cls-3" d="M1206.93,1507.52a.69.69,0,0,1-.69-.69V1386a.69.69,0,1,1,1.37,0v120.85A.69.69,0,0,1,1206.93,1507.52Z"/>
          <path class="cls-3" d="M1213.31,1507.52a.68.68,0,0,1-.68-.69V1386a.68.68,0,1,1,1.36,0v120.85A.68.68,0,0,1,1213.31,1507.52Z"/>
          <path class="cls-3" d="M1219.69,1507.52a.68.68,0,0,1-.68-.69V1386a.68.68,0,0,1,.68-.69.69.69,0,0,1,.69.69v120.85A.69.69,0,0,1,1219.69,1507.52Z"/>
          <path class="cls-3" d="M1226.08,1507.52a.69.69,0,0,1-.69-.69V1384.37a.69.69,0,1,1,1.37,0v122.46A.69.69,0,0,1,1226.08,1507.52Z"/>
          <path class="cls-3" d="M1232.46,1507.52a.68.68,0,0,1-.68-.69V1383.47a.68.68,0,0,1,1.36,0v123.36A.68.68,0,0,1,1232.46,1507.52Z"/>
          <path class="cls-3" d="M1238.84,1507.52a.69.69,0,0,1-.68-.69V1383.47a.69.69,0,0,1,1.37,0v123.36A.69.69,0,0,1,1238.84,1507.52Z"/>
          <path class="cls-3" d="M1245.23,1507.52a.69.69,0,0,1-.69-.69V1381.15a.69.69,0,0,1,1.37,0v125.68A.69.69,0,0,1,1245.23,1507.52Z"/>
          <path class="cls-3" d="M1251.61,1507.52a.68.68,0,0,1-.68-.69V1380.26a.68.68,0,1,1,1.36,0v126.57A.68.68,0,0,1,1251.61,1507.52Z"/>
          <path class="cls-3" d="M1258,1507.52a.69.69,0,0,1-.68-.69v-128.9a.69.69,0,0,1,1.37,0v128.9A.69.69,0,0,1,1258,1507.52Z"/>
          <path class="cls-3" d="M1264.38,1507.52a.69.69,0,0,1-.69-.69v-131a.69.69,0,1,1,1.37,0v131A.69.69,0,0,1,1264.38,1507.52Z"/>
          <path class="cls-3" d="M1270.76,1507.52a.68.68,0,0,1-.68-.69V1373.64a.68.68,0,0,1,1.36,0v133.19A.68.68,0,0,1,1270.76,1507.52Z"/>
          <path class="cls-3" d="M1277.14,1507.52a.69.69,0,0,1-.68-.69V1371.49a.69.69,0,0,1,1.37,0v135.34A.69.69,0,0,1,1277.14,1507.52Z"/>
          <path class="cls-3" d="M1283.53,1507.52a.69.69,0,0,1-.69-.69V1368.45a.69.69,0,0,1,.69-.68.68.68,0,0,1,.68.68v138.38A.68.68,0,0,1,1283.53,1507.52Z"/>
          <path class="cls-3" d="M1289.91,1507.52a.68.68,0,0,1-.68-.69V1364.34a.68.68,0,0,1,1.36,0v142.49A.68.68,0,0,1,1289.91,1507.52Z"/>
          <path class="cls-3" d="M1296.29,1507.52a.69.69,0,0,1-.68-.69V1360.41a.69.69,0,1,1,1.37,0v146.42A.69.69,0,0,1,1296.29,1507.52Z"/>
          <path class="cls-3" d="M1302.68,1507.52a.69.69,0,0,1-.69-.69V1355.4a.68.68,0,0,1,.69-.68.67.67,0,0,1,.68.68v151.43A.68.68,0,0,1,1302.68,1507.52Z"/>
          <path class="cls-3" d="M1309.06,1507.52a.68.68,0,0,1-.68-.69V1349.1a.68.68,0,0,1,.68-.68.69.69,0,0,1,.69.68v157.73A.69.69,0,0,1,1309.06,1507.52Z"/>
          <path class="cls-3" d="M1315.44,1507.52h0a.69.69,0,0,1-.68-.69l.23-165.92a.68.68,0,0,1,.68-.68h0a.69.69,0,0,1,.69.69l-.23,165.91A.69.69,0,0,1,1315.44,1507.52Z"/>
          <path class="cls-3" d="M1321.83,1507.52a.69.69,0,0,1-.69-.69V1348.62a.69.69,0,0,1,.69-.68.68.68,0,0,1,.68.68v158.21A.68.68,0,0,1,1321.83,1507.52Z"/>
          <path class="cls-3" d="M1328.21,1507.52a.68.68,0,0,1-.68-.69V1354.27a.68.68,0,0,1,.68-.69.69.69,0,0,1,.69.69v152.56A.69.69,0,0,1,1328.21,1507.52Z"/>
          <path class="cls-3" d="M1334.59,1507.52a.69.69,0,0,1-.68-.69V1359.69a.69.69,0,0,1,1.37,0v147.14A.69.69,0,0,1,1334.59,1507.52Z"/>
          <path class="cls-3" d="M1341,1507.52a.69.69,0,0,1-.69-.69V1364.09a.69.69,0,0,1,.69-.68.68.68,0,0,1,.68.68v142.74A.68.68,0,0,1,1341,1507.52Z"/>
          <path class="cls-3" d="M1347.36,1507.52a.68.68,0,0,1-.68-.69V1367.5a.67.67,0,0,1,.68-.68.68.68,0,0,1,.69.68v139.33A.69.69,0,0,1,1347.36,1507.52Z"/>
          <path class="cls-3" d="M1353.75,1507.52a.69.69,0,0,1-.69-.69V1371a.69.69,0,0,1,1.37,0v135.82A.69.69,0,0,1,1353.75,1507.52Z"/>
          <path class="cls-3" d="M1360.13,1507.52a.69.69,0,0,1-.69-.69v-133a.69.69,0,0,1,.69-.69.68.68,0,0,1,.68.69v133A.68.68,0,0,1,1360.13,1507.52Z"/>
          <path class="cls-3" d="M1366.51,1507.52a.68.68,0,0,1-.68-.69V1376.21a.68.68,0,0,1,.68-.69.69.69,0,0,1,.69.69v130.62A.69.69,0,0,1,1366.51,1507.52Z"/>
          <path class="cls-3" d="M1372.9,1507.52a.69.69,0,0,1-.69-.69v-128.9a.69.69,0,0,1,1.37,0v128.9A.69.69,0,0,1,1372.9,1507.52Z"/>
          <path class="cls-3" d="M1379.28,1507.52a.69.69,0,0,1-.69-.69V1380.08a.69.69,0,0,1,.69-.69.68.68,0,0,1,.68.69v126.75A.68.68,0,0,1,1379.28,1507.52Z"/>
          <path class="cls-3" d="M1385.66,1507.52a.68.68,0,0,1-.68-.69V1381.15a.67.67,0,0,1,.68-.68.68.68,0,0,1,.69.68v125.68A.69.69,0,0,1,1385.66,1507.52Z"/>
          <path class="cls-3" d="M1392.05,1507.52a.69.69,0,0,1-.69-.69V1383.47a.69.69,0,0,1,1.37,0v123.36A.69.69,0,0,1,1392.05,1507.52Z"/>
          <path class="cls-3" d="M1398.43,1507.52a.68.68,0,0,1-.68-.69V1383.47a.68.68,0,0,1,1.36,0v123.36A.68.68,0,0,1,1398.43,1507.52Z"/>
          <path class="cls-3" d="M1404.81,1507.52a.68.68,0,0,1-.68-.69V1384.37a.68.68,0,0,1,.68-.69.69.69,0,0,1,.69.69v122.46A.69.69,0,0,1,1404.81,1507.52Z"/>
          <path class="cls-3" d="M1411.2,1507.52a.69.69,0,0,1-.69-.69V1386a.69.69,0,1,1,1.37,0v120.85A.69.69,0,0,1,1411.2,1507.52Z"/>
          <path class="cls-3" d="M1417.58,1507.52a.68.68,0,0,1-.68-.69V1386a.68.68,0,1,1,1.36,0v120.85A.68.68,0,0,1,1417.58,1507.52Z"/>
          <path class="cls-3" d="M1424,1507.52a.69.69,0,0,1-.68-.69V1386a.69.69,0,1,1,1.37,0v120.85A.69.69,0,0,1,1424,1507.52Z"/>
          <path class="cls-3" d="M1430.35,1507.52a.69.69,0,0,1-.69-.69V1386a.69.69,0,1,1,1.37,0v120.85A.69.69,0,0,1,1430.35,1507.52Z"/>
          <path class="cls-3" d="M1436.73,1507.52a.68.68,0,0,1-.68-.69V1386a.68.68,0,1,1,1.36,0v120.85A.68.68,0,0,1,1436.73,1507.52Z"/>
          <path class="cls-3" d="M1443.11,1507.52a.69.69,0,0,1-.68-.69V1386a.69.69,0,1,1,1.37,0v120.85A.69.69,0,0,1,1443.11,1507.52Z"/>
          <path class="cls-3" d="M1449.5,1507.52a.69.69,0,0,1-.69-.69V1386a.69.69,0,1,1,1.37,0v120.85A.69.69,0,0,1,1449.5,1507.52Z"/>
          <path class="cls-3" d="M1455.88,1507.52a.68.68,0,0,1-.68-.69V1386a.68.68,0,1,1,1.36,0v120.85A.68.68,0,0,1,1455.88,1507.52Z"/>
          <path class="cls-3" d="M1462.26,1507.52a.69.69,0,0,1-.68-.69V1386a.69.69,0,1,1,1.37,0v120.85A.69.69,0,0,1,1462.26,1507.52Z"/>
          <path class="cls-3" d="M1468.65,1507.52a.69.69,0,0,1-.69-.69V1386a.69.69,0,1,1,1.37,0v120.85A.69.69,0,0,1,1468.65,1507.52Z"/>
          <path class="cls-3" d="M1475,1507.52a.68.68,0,0,1-.68-.69V1386a.68.68,0,1,1,1.36,0v120.85A.68.68,0,0,1,1475,1507.52Z"/>
          <path class="cls-3" d="M1481.41,1507.52a.69.69,0,0,1-.68-.69V1386a.69.69,0,1,1,1.37,0v120.85A.69.69,0,0,1,1481.41,1507.52Z"/>
          <path class="cls-3" d="M1487.8,1507.52a.69.69,0,0,1-.69-.69V1386a.69.69,0,1,1,1.37,0v120.85A.69.69,0,0,1,1487.8,1507.52Z"/>
          <path class="cls-3" d="M1494.18,1507.52a.68.68,0,0,1-.68-.69V1386a.68.68,0,1,1,1.36,0v120.85A.68.68,0,0,1,1494.18,1507.52Z"/>
          <path class="cls-3" d="M1500.56,1507.52a.69.69,0,0,1-.68-.69V1386a.69.69,0,1,1,1.37,0v120.85A.69.69,0,0,1,1500.56,1507.52Z"/>
          <path class="cls-3" d="M1507,1507.52a.69.69,0,0,1-.69-.69V1386a.69.69,0,0,1,.69-.69.68.68,0,0,1,.68.69v120.85A.68.68,0,0,1,1507,1507.52Z"/>
          <path class="cls-3" d="M1513.33,1507.52a.68.68,0,0,1-.68-.69V1386a.68.68,0,0,1,.68-.69.69.69,0,0,1,.69.69v120.85A.69.69,0,0,1,1513.33,1507.52Z"/>
          <path class="cls-3" d="M1519.71,1507.52a.69.69,0,0,1-.68-.69V1386a.69.69,0,1,1,1.37,0v120.85A.69.69,0,0,1,1519.71,1507.52Z"/>
          <path class="cls-3" d="M1526.1,1507.52a.69.69,0,0,1-.69-.69V1386a.69.69,0,0,1,.69-.69.68.68,0,0,1,.68.69v120.85A.68.68,0,0,1,1526.1,1507.52Z"/>
          <path class="cls-3" d="M1532.48,1507.52a.68.68,0,0,1-.68-.69V1386a.68.68,0,0,1,.68-.69.69.69,0,0,1,.69.69v120.85A.69.69,0,0,1,1532.48,1507.52Z"/>
          <path class="cls-3" d="M1538.86,1507.52a.69.69,0,0,1-.68-.69V1386a.69.69,0,1,1,1.37,0v120.85A.69.69,0,0,1,1538.86,1507.52Z"/>
          <path class="cls-3" d="M1545.25,1507.52a.69.69,0,0,1-.69-.69V1386a.69.69,0,0,1,.69-.69.68.68,0,0,1,.68.69v120.85A.68.68,0,0,1,1545.25,1507.52Z"/>
          <path class="cls-3" d="M1551.63,1507.52a.68.68,0,0,1-.68-.69V1386a.68.68,0,0,1,.68-.69.69.69,0,0,1,.69.69v120.85A.69.69,0,0,1,1551.63,1507.52Z"/>
          <path class="cls-3" d="M1558,1507.52a.69.69,0,0,1-.69-.69V1386a.69.69,0,1,1,1.37,0v120.85A.69.69,0,0,1,1558,1507.52Z"/>
          <path class="cls-3" d="M1564.4,1507.52a.69.69,0,0,1-.69-.69V1386a.69.69,0,0,1,.69-.69.68.68,0,0,1,.68.69v120.85A.68.68,0,0,1,1564.4,1507.52Z"/>
        </g>
        <polygon class="cls-3" points="1050.84 1381.73 1050.84 1345.44 1009.04 1345.44 1009.04 1381.73 912.11 1381.73 912.11 1345.44 870.31 1345.44 870.31 1381.73 861.53 1381.73 861.53 1511.09 1056.46 1511.09 1056.46 1381.73 1050.84 1381.73"/>
        <g>
          <rect class="cls-5" x="882.74" y="1397.39" width="10.94" height="27.46"/>
          <rect class="cls-5" x="900.98" y="1397.39" width="5.47" height="27.46"/>
          <rect class="cls-5" x="1023.17" y="1397.39" width="10.94" height="27.46" transform="translate(2057.29 2822.24) rotate(-180)"/>
          <rect class="cls-5" x="1010.41" y="1397.39" width="5.47" height="27.46" transform="translate(2026.29 2822.24) rotate(-180)"/>
          <rect class="cls-5" x="944.75" y="1402.47" width="30.09" height="22.37"/>
          <rect class="cls-5" x="1013.14" y="1480.78" width="18.69" height="20.85"/>
        </g>
        <rect class="cls-5" x="1591.2" y="641.08" width="136.62" height="7.42"/>
        <polygon class="cls-4" points="1719.99 648.49 1598.87 648.49 1601.15 652.81 1717.95 652.81 1719.99 648.49"/>
        <polygon class="cls-5" points="1601.15 652.81 1611.01 671.49 1709.12 671.49 1717.95 652.81 1601.15 652.81"/>
        <rect class="cls-4" x="1610.53" y="671.48" width="98.43" height="8.81" rx="1.13" ry="1.13"/>
        <rect class="cls-5" x="1607.82" y="680.29" width="103.78" height="5.83" rx="0.75" ry="0.75"/>
        <rect class="cls-4" x="1606.86" y="686.12" width="105.7" height="4.31" rx="0.56" ry="0.56"/>
        <rect class="cls-5" x="1614.29" y="690.44" width="90.84" height="6.95" rx="0.9" ry="0.9"/>
        <rect class="cls-4" x="1603.01" y="1344.6" width="113.31" height="8.81" rx="1.13" ry="1.13" transform="translate(3319.32 2698.01) rotate(180)"/>
        <rect class="cls-5" x="1599.97" y="1338.77" width="119.47" height="5.83" rx="0.75" ry="0.75" transform="translate(3319.42 2683.37) rotate(-180)"/>
        <rect class="cls-4" x="1598.87" y="1334.45" width="121.68" height="4.31" rx="0.56" ry="0.56" transform="translate(3319.42 2673.22) rotate(180)"/>
        <rect class="cls-5" x="1607.42" y="1327.5" width="104.57" height="6.95" rx="0.9" ry="0.9" transform="translate(3319.42 2661.96) rotate(180)"/>
        <rect class="cls-4" x="1617.42" y="697.39" width="84.38" height="630.11"/>
        <rect class="cls-5" x="1589.76" y="1353.41" width="139.82" height="19.16"/>
        <rect class="cls-4" x="1574.26" y="1372.56" width="171.13" height="11.76"/>
        <rect class="cls-5" x="1655.19" y="699.9" width="9.11" height="618.61" rx="1.17" ry="1.17"/>
        <g>
          <rect class="cls-5" x="1640.51" y="699.9" width="9.11" height="618.61" rx="4.55" ry="4.55"/>
          <rect class="cls-5" x="1626.99" y="699.9" width="7.95" height="618.61" rx="1.02" ry="1.02"/>
          <rect class="cls-5" x="1617.42" y="699.9" width="5.79" height="618.61" rx="0.75" ry="0.75"/>
        </g>
        <g>
          <rect class="cls-5" x="1669.59" y="699.9" width="9.11" height="618.61" rx="4.55" ry="4.55"/>
          <rect class="cls-5" x="1684.27" y="699.9" width="7.95" height="618.61" rx="1.02" ry="1.02" transform="translate(3376.49 2018.4) rotate(180)"/>
          <rect class="cls-5" x="1696" y="699.9" width="5.79" height="618.61" rx="0.75" ry="0.75" transform="translate(3397.79 2018.4) rotate(-180)"/>
        </g>
        <rect class="cls-5" x="188.3" y="641.08" width="136.62" height="7.42"/>
        <polygon class="cls-4" points="317.09 648.49 195.97 648.49 198.25 652.81 315.05 652.81 317.09 648.49"/>
        <polygon class="cls-5" points="198.25 652.81 208.11 671.49 306.23 671.49 315.05 652.81 198.25 652.81"/>
        <rect class="cls-4" x="207.64" y="671.48" width="98.43" height="8.81" rx="1.13" ry="1.13"/>
        <rect class="cls-5" x="204.92" y="680.29" width="103.78" height="5.83" rx="0.75" ry="0.75"/>
        <rect class="cls-4" x="203.96" y="686.12" width="105.7" height="4.31" rx="0.56" ry="0.56"/>
        <rect class="cls-5" x="211.39" y="690.44" width="90.84" height="6.95" rx="0.9" ry="0.9"/>
        <rect class="cls-4" x="200.11" y="1344.6" width="113.31" height="8.81" rx="1.13" ry="1.13" transform="translate(513.53 2698.01) rotate(-180)"/>
        <rect class="cls-5" x="197.07" y="1338.77" width="119.47" height="5.83" rx="0.75" ry="0.75" transform="translate(513.62 2683.37) rotate(-180)"/>
        <rect class="cls-4" x="195.97" y="1334.45" width="121.68" height="4.31" rx="0.56" ry="0.56" transform="translate(513.62 2673.22) rotate(180)"/>
        <rect class="cls-5" x="204.52" y="1327.5" width="104.57" height="6.95" rx="0.9" ry="0.9" transform="translate(513.62 2661.96) rotate(-180)"/>
        <rect class="cls-4" x="214.52" y="697.39" width="84.38" height="630.11"/>
        <rect class="cls-5" x="186.86" y="1353.41" width="139.82" height="19.16"/>
        <rect class="cls-4" x="171.36" y="1372.56" width="171.13" height="11.76"/>
        <rect class="cls-5" x="252.3" y="699.9" width="9.11" height="618.61" rx="1.17" ry="1.17"/>
        <g>
          <rect class="cls-5" x="237.62" y="699.9" width="9.11" height="618.61" rx="4.55" ry="4.55"/>
          <rect class="cls-5" x="224.09" y="699.9" width="7.95" height="618.61" rx="1.02" ry="1.02"/>
          <rect class="cls-5" x="214.52" y="699.9" width="5.79" height="618.61" rx="0.75" ry="0.75"/>
        </g>
        <g>
          <rect class="cls-5" x="266.69" y="699.9" width="9.11" height="618.61" rx="4.55" ry="4.55"/>
          <rect class="cls-5" x="281.37" y="699.9" width="7.95" height="618.61" rx="1.02" ry="1.02" transform="translate(570.7 2018.4) rotate(-180)"/>
          <rect class="cls-5" x="293.1" y="699.9" width="5.79" height="618.61" rx="0.75" ry="0.75" transform="translate(592 2018.4) rotate(-180)"/>
        </g>
        <rect class="cls-5" x="1574.28" y="1383.88" width="171.09" height="171.09"/>
        <rect class="cls-5" x="171.39" y="1383.88" width="171.09" height="171.09"/>
        <rect class="cls-16" x="925.22" width="69.15" height="17.01"/>
        <polygon class="cls-3" points="960.79 19.56 681.69 89.52 1239.89 89.52 960.79 19.56"/>
        <rect class="cls-3" x="681.69" y="89.52" width="558.2" height="13.35"/>
        <polygon class="cls-1" points="960.79 27.57 718.43 93.97 1203.15 93.97 960.79 27.57"/>
        <path class="cls-2" d="M960.75,8.5l285,71.43c2.63.66,4.18,3.61,3.45,6.54h0c-.74,2.94-3.5,4.81-6.13,4.15L960.79,19.85,678.48,90.62c-2.63.66-5.39-1.21-6.12-4.15h0c-.74-2.93.81-5.88,3.44-6.54l285-71.43"/>
        <rect class="cls-2" x="696.14" y="102.87" width="527.7" height="5.99"/>
        <g>
          <rect class="cls-1" x="696.14" y="108.86" width="20.85" height="72.07"/>
          <rect class="cls-2" x="696.14" y="108.86" width="20.85" height="2.95"/>
          <path class="cls-2" d="M710,113.09a1.84,1.84,0,0,0-1.82,1.83v66h3.64v-66A1.84,1.84,0,0,0,710,113.09Z"/>
          <path class="cls-2" d="M702.68,113.09a1.83,1.83,0,0,0-1.81,1.83v66h3.63v-66A1.84,1.84,0,0,0,702.68,113.09Z"/>
          <path class="cls-2" d="M696.14,113.09v67.84H698v-66A1.84,1.84,0,0,0,696.14,113.09Z"/>
          <path class="cls-2" d="M717,113.09a1.84,1.84,0,0,0-1.82,1.83v66H717Z"/>
        </g>
        <g>
          <rect class="cls-1" x="746.83" y="108.86" width="20.85" height="72.07"/>
          <rect class="cls-2" x="746.83" y="108.86" width="20.85" height="2.95"/>
          <path class="cls-2" d="M760.64,113.09a1.84,1.84,0,0,0-1.82,1.83v66h3.63v-66A1.83,1.83,0,0,0,760.64,113.09Z"/>
          <path class="cls-2" d="M753.37,113.09a1.84,1.84,0,0,0-1.82,1.83v66h3.64v-66A1.84,1.84,0,0,0,753.37,113.09Z"/>
          <path class="cls-2" d="M746.83,113.09v67.84h1.82v-66A1.84,1.84,0,0,0,746.83,113.09Z"/>
          <path class="cls-2" d="M767.67,113.09a1.83,1.83,0,0,0-1.81,1.83v66h1.81Z"/>
        </g>
        <g>
          <rect class="cls-1" x="797.51" y="108.86" width="20.85" height="72.07"/>
          <rect class="cls-2" x="797.51" y="108.86" width="20.85" height="2.95"/>
          <path class="cls-2" d="M811.32,113.09a1.84,1.84,0,0,0-1.82,1.83v66h3.64v-66A1.84,1.84,0,0,0,811.32,113.09Z"/>
          <path class="cls-2" d="M804.05,113.09a1.83,1.83,0,0,0-1.81,1.83v66h3.63v-66A1.84,1.84,0,0,0,804.05,113.09Z"/>
          <path class="cls-2" d="M797.51,113.09v67.84h1.82v-66A1.84,1.84,0,0,0,797.51,113.09Z"/>
          <path class="cls-2" d="M818.36,113.09a1.84,1.84,0,0,0-1.82,1.83v66h1.82Z"/>
        </g>
        <g>
          <rect class="cls-1" x="848.2" y="108.86" width="20.85" height="72.07"/>
          <rect class="cls-2" x="848.2" y="108.86" width="20.85" height="2.95"/>
          <path class="cls-2" d="M862,113.09a1.84,1.84,0,0,0-1.82,1.83v66h3.63v-66A1.83,1.83,0,0,0,862,113.09Z"/>
          <path class="cls-2" d="M854.74,113.09a1.84,1.84,0,0,0-1.82,1.83v66h3.64v-66A1.84,1.84,0,0,0,854.74,113.09Z"/>
          <path class="cls-2" d="M848.2,113.09v67.84H850v-66A1.84,1.84,0,0,0,848.2,113.09Z"/>
          <path class="cls-2" d="M869,113.09a1.83,1.83,0,0,0-1.81,1.83v66H869Z"/>
        </g>
        <g>
          <rect class="cls-1" x="898.88" y="108.86" width="20.85" height="72.07"/>
          <rect class="cls-2" x="898.88" y="108.86" width="20.85" height="2.95"/>
          <path class="cls-2" d="M912.69,113.09a1.84,1.84,0,0,0-1.82,1.83v66h3.64v-66A1.84,1.84,0,0,0,912.69,113.09Z"/>
          <path class="cls-2" d="M905.42,113.09a1.83,1.83,0,0,0-1.81,1.83v66h3.63v-66A1.84,1.84,0,0,0,905.42,113.09Z"/>
          <path class="cls-2" d="M898.88,113.09v67.84h1.82v-66A1.84,1.84,0,0,0,898.88,113.09Z"/>
          <path class="cls-2" d="M919.73,113.09a1.84,1.84,0,0,0-1.82,1.83v66h1.82Z"/>
        </g>
        <g>
          <rect class="cls-1" x="949.57" y="108.86" width="20.85" height="72.07"/>
          <rect class="cls-2" x="949.57" y="108.86" width="20.85" height="2.95"/>
          <path class="cls-2" d="M963.38,113.09a1.84,1.84,0,0,0-1.82,1.83v66h3.63v-66A1.83,1.83,0,0,0,963.38,113.09Z"/>
          <path class="cls-2" d="M956.11,113.09a1.84,1.84,0,0,0-1.82,1.83v66h3.64v-66A1.84,1.84,0,0,0,956.11,113.09Z"/>
          <path class="cls-2" d="M949.57,113.09v67.84h1.82v-66A1.84,1.84,0,0,0,949.57,113.09Z"/>
          <path class="cls-2" d="M970.41,113.09a1.83,1.83,0,0,0-1.81,1.83v66h1.81Z"/>
        </g>
        <g>
          <rect class="cls-1" x="1000.25" y="108.86" width="20.85" height="72.07"/>
          <rect class="cls-2" x="1000.25" y="108.86" width="20.85" height="2.95"/>
          <path class="cls-2" d="M1014.06,113.09a1.84,1.84,0,0,0-1.82,1.83v66h3.64v-66A1.84,1.84,0,0,0,1014.06,113.09Z"/>
          <path class="cls-2" d="M1006.79,113.09a1.83,1.83,0,0,0-1.81,1.83v66h3.63v-66A1.84,1.84,0,0,0,1006.79,113.09Z"/>
          <path class="cls-2" d="M1000.25,113.09v67.84h1.82v-66A1.84,1.84,0,0,0,1000.25,113.09Z"/>
          <path class="cls-2" d="M1021.1,113.09a1.84,1.84,0,0,0-1.82,1.83v66h1.82Z"/>
        </g>
        <g>
          <rect class="cls-1" x="1050.94" y="108.86" width="20.85" height="72.07"/>
          <rect class="cls-2" x="1050.94" y="108.86" width="20.85" height="2.95"/>
          <path class="cls-2" d="M1064.75,113.09a1.84,1.84,0,0,0-1.82,1.83v66h3.63v-66A1.83,1.83,0,0,0,1064.75,113.09Z"/>
          <path class="cls-2" d="M1057.48,113.09a1.84,1.84,0,0,0-1.82,1.83v66h3.64v-66A1.84,1.84,0,0,0,1057.48,113.09Z"/>
          <path class="cls-2" d="M1050.94,113.09v67.84h1.81v-66A1.83,1.83,0,0,0,1050.94,113.09Z"/>
          <path class="cls-2" d="M1071.78,113.09a1.83,1.83,0,0,0-1.81,1.83v66h1.81Z"/>
        </g>
        <g>
          <rect class="cls-1" x="1101.62" y="108.86" width="20.85" height="72.07"/>
          <rect class="cls-2" x="1101.62" y="108.86" width="20.85" height="2.95"/>
          <path class="cls-2" d="M1115.43,113.09a1.84,1.84,0,0,0-1.82,1.83v66h3.64v-66A1.84,1.84,0,0,0,1115.43,113.09Z"/>
          <path class="cls-2" d="M1108.16,113.09a1.83,1.83,0,0,0-1.81,1.83v66H1110v-66A1.84,1.84,0,0,0,1108.16,113.09Z"/>
          <path class="cls-2" d="M1101.62,113.09v67.84h1.82v-66A1.84,1.84,0,0,0,1101.62,113.09Z"/>
          <path class="cls-2" d="M1122.47,113.09a1.84,1.84,0,0,0-1.82,1.83v66h1.82Z"/>
        </g>
        <g>
          <rect class="cls-1" x="1152.31" y="108.86" width="20.85" height="72.07"/>
          <rect class="cls-2" x="1152.31" y="108.86" width="20.85" height="2.95"/>
          <path class="cls-2" d="M1166.12,113.09a1.84,1.84,0,0,0-1.82,1.83v66h3.63v-66A1.83,1.83,0,0,0,1166.12,113.09Z"/>
          <path class="cls-2" d="M1158.85,113.09a1.84,1.84,0,0,0-1.82,1.83v66h3.64v-66A1.84,1.84,0,0,0,1158.85,113.09Z"/>
          <path class="cls-2" d="M1152.31,113.09v67.84h1.81v-66A1.83,1.83,0,0,0,1152.31,113.09Z"/>
          <path class="cls-2" d="M1173.15,113.09a1.83,1.83,0,0,0-1.81,1.83v66h1.81Z"/>
        </g>
        <g>
          <rect class="cls-1" x="1202.99" y="108.86" width="20.85" height="72.07"/>
          <rect class="cls-2" x="1202.99" y="108.86" width="20.85" height="2.95"/>
          <path class="cls-2" d="M1216.8,113.09a1.84,1.84,0,0,0-1.82,1.83v66h3.64v-66A1.84,1.84,0,0,0,1216.8,113.09Z"/>
          <path class="cls-2" d="M1209.53,113.09a1.83,1.83,0,0,0-1.81,1.83v66h3.63v-66A1.84,1.84,0,0,0,1209.53,113.09Z"/>
          <path class="cls-2" d="M1203,113.09v67.84h1.82v-66A1.84,1.84,0,0,0,1203,113.09Z"/>
          <path class="cls-2" d="M1223.84,113.09a1.84,1.84,0,0,0-1.82,1.83v66h1.82Z"/>
        </g>
      </g>
    </g>
  </g>
</svg>
