<svg xmlns="http://www.w3.org/2000/svg" xmlns:xlink="http://www.w3.org/1999/xlink" version="1" width="500" height="485" viewBox="0 0 132.72 127.219"><g transform="matrix(1.0777 0 0 1.08028 -2.53 -.76)"><ellipse cx="63.755" cy="59.375" rx="59.336" ry="59.375" fill="#110070"/><radialGradient cx="64.569" cy="7.227" r="104.221" fx="64.569" fy="7.227" id="a" gradientUnits="userSpaceOnUse"><stop offset="0" stop-color="#67c5d5"/><stop offset=".16" stop-color="#66c2d3"/><stop offset=".28" stop-color="#62b9ce"/><stop offset=".385" stop-color="#5ca8c6"/><stop offset=".483" stop-color="#5392ba"/><stop offset=".576" stop-color="#4874aa"/><stop offset=".665" stop-color="#3a5097"/><stop offset=".748" stop-color="#2a2781"/><stop offset=".815" stop-color="#1b006d"/><stop offset="1" stop-color="#596aad"/></radialGradient><ellipse cx="63.755" cy="59.375" rx="58.215" ry="58.254" fill="url(#a) #000"/><radialGradient cx="64.552" cy="14.175" r="52.232" fx="64.552" fy="14.175" id="b" gradientUnits="userSpaceOnUse"><stop offset="0" stop-color="#0f80bc"/><stop offset=".338" stop-color="#0a5f9e"/><stop offset="1" stop-color="#00145a"/></radialGradient><path d="M55.405 89.446c-.072-.316-.857-1.233-1.458-1.438-.599-.205-1.188.884-1.574-.924-1.266.726-1.812-.2-1.812-.2s-1.365.08-1.629 1.751c-.65.769-2.316 3.566-1.431.657.891-2.927-.94-.23-1.11 1.24-.318.653-.855.719-.517-2.218-1.173-.405-1.772-3.127-1.129-3.179-.747-1.041-.16-2.633.462-2.548.622.08 1.69-1.36 1.657-1.694-.033-.333.482-.095.45-2.336-.033-2.247.847-2.803.919-.924.076 1.872 1.194-.613 1.079-1.566-.116-.949.112-3.094.793-1.826-.793-3.137-.167-3.261.309-1.173 1.193.094 1.234.73 1.234.73 1.321-.325 1.954.67 2.056 1.228 1.224-1.445 2.46.113 2.46.113s.853-.283.445 1.2c-.41 1.478 1.772.678 1.251-.384 1.073-.543 2.666 1.102 3.168 2.224.502 1.127-.86 2.723.202 3.109 1.068.384.6 2.242.6 2.242s2.232 1.238.683 2.301l-.528 1.265s1.01 1.127 1.354.456c.344-.672.466.683.466.683-.129-.24.248 1.396 1.64 1.74 1.398.341 2.283 2.55.731 2.578-1.546.025-1.666-.017-2.085.886-.417.899-2.391.931-3.413-.233-1.087.368-3.021-.106-2.452-.976-.938.547-1.824-.922-1.091-1.577.733-.653-.412-1.499-.797-.563-.381.935-2.404 1.396-2.263-.195.042-.472 1.12-.748 1.134-.354.197.455.277-.036.196-.095z" fill="url(#b) #000"/><radialGradient cx="64.554" cy="14.176" r="52.229" fx="64.554" fy="14.176" id="c" gradientUnits="userSpaceOnUse"><stop offset="0" stop-color="#0f80bc"/><stop offset=".338" stop-color="#0a5f9e"/><stop offset="1" stop-color="#00145a"/></radialGradient><path d="M103.541 43.916c.309.306.917.238 1.254.144.339-.097.291-.337.583-.431.287-.097 1.397.431 1.107 1.584-.673.094-.917.912-.917.912s-.673.287-1.013.144c-.338-.144-.338-.097-.821-.05-.483.05-1.643-.622-.387-.622 1.257 0-.143-.577-.675-.577-.53 0-.097-.528.532-.384-.436-.72-.195-1.251.337-.72z" fill="url(#c) #000"/><radialGradient cx="64.549" cy="14.172" r="52.237" fx="64.549" fy="14.172" id="d" gradientUnits="userSpaceOnUse"><stop offset="0" stop-color="#0f80bc"/><stop offset=".338" stop-color="#0a5f9e"/><stop offset="1" stop-color="#00145a"/></radialGradient><path d="M99.188 46.524c-.337.334.049 1.344.483 1.294.433-.047 1.11-.238 1.11-.238s.337.672 0 .866c-.337.19-1.319.106-.047.575 1.304.479 1.64.334 1.737.094.097-.238.53-1.054.773-1.006.193-.431-.676-.815-.192-1.105.479-.288.096-1.343.096-1.343s-.677.047-.966.528c-.29.48-.674-.047-.964-.047-.049.287-.243.527-.243.527l-.193-.434c-.001-.001-1.354-.047-1.594.289z" fill="url(#d) #000"/><radialGradient cx="65.405" cy="19.12" r="57.383" fx="65.405" fy="19.12" id="e" gradientUnits="userSpaceOnUse"><stop offset="0" stop-color="#0f80bc"/><stop offset=".264" stop-color="#0b629b"/><stop offset=".844" stop-color="#031747"/><stop offset="1" stop-color="#00022f"/></radialGradient><path d="M90.165 47.314c-.042-.123.384-.62.27.024-.262.458 1.058.87 1.428.36 1.241-1.7-1.17-2.522-2.216-1.732-1.056.797-1.638-.912-.425-1.155 1.209-.245 1.311-2.43-.021-2.438 1.176-.58-.453-2.318-1.799-2.615-.217-1.87-2.189-3.059-3.226-2.38-1.047.681-1.137.561-2.671-.37-1.528-.927-2.264 1.928-1.14 3.175 1.131 1.256.311 3.281.358 2.935 0 0-.426.766-.398 1.053-1.294.439-1.672-1.383-2.475-1.786-.585.763-1.53 1.17-1.53 1.17l.071-1.553s-4.017-2.188-5.251-1.575c-1.521.47-1.881 3.991-.5 4.506 1.383.521-1.735 1.818 1.393 5.116 3.213 3.386 4.455 3.483 5.111 2.932.162-.139.442-.347.784-.578.031.13.083.255.163.373.804 1.209-1.869 2.162-2.242 3.894-.379 1.751-.03 5.007 1.556 5.118.302-1.735 3.27-1.122 1.655.45-1.644 1.603-.491 1.886-.491 1.886s.078 3.003 2.592 2.043a2.632 2.632 0 0 0-.167.632c-.703-.142-2.421-.357-2.841.841-.53 1.512-2.774-.512-4.344.167-1.563.674-3.844 2.887-3.076 4.443 1.476-.7 2.606 2.456.544 1.808-2.069-.65-1.667.583-1.667.583s-2.154 1.699-.137 3.508c-.775.118-2.152.981-1.688 2.874 0 0-.885.032-1.004 1.726-2.887.582-2.711 1.478 1.633.496-1.753.91 1.226 1.338 2.546 1.217 1.322-.12 4.792 1.591 2.185 1.608-2.612.016-1.834 1.294 1.294 1.355 3.123.064 2.795.788 3.259.756.464-.032 2.484 1.561 2.374 2.444-.113.884 2.116 1.801 3.566.788.074.919 3.886.202 4.45-1.455 4.128.631 4.033-.139 3.114-.629-2.067-.316-5.86-3.063-1.746-1.65 4.093 1.411.15-1.11-.929-2.079-2.35-.457-2.47-2.416-2.47-2.416s1.298-.739.274-2.586c2.539-.471 1.006-1.364 1.291-2.215.285-.854 1.574-1.942 2.016-2.03.084-.115.775.023.134.283-.554.006-.161 1.566.502 1.646 2.242.273 1.586-2.654.269-3.243-1.32-.594-.135-2.204.792-1.12.927 1.082 2.993-.133 2.218-1.504 1.232.854 1.896-1.909 1.372-3.495 1.648-1.429 1.595-4.278.32-4.915-.627-.313-.93-.516-1.082-.905.757-.358 1.761-.622 2.155-.269.641.579 2.425-1.018 2.312-2.885.751.412 1.947-3.395.931-4.727 2.326-3.252 1.699-3.547.921-3.002-1.17 1.622-5.013 3.563-2.034.688 2.892-2.791-.769-.675-1.994-.222-1.441 1.805-2.97.938-2.97.938s.065-1.479-1.796-1.509c.86-2.373-.526-1.516-1.011-2.164-.486-.647-.661-2.229-.512-2.634z" fill="url(#e) #000"/><radialGradient cx="64.551" cy="14.173" r="52.233" fx="64.551" fy="14.173" id="f" gradientUnits="userSpaceOnUse"><stop offset="0" stop-color="#0f80bc"/><stop offset=".338" stop-color="#0a5f9e"/><stop offset="1" stop-color="#00145a"/></radialGradient><path d="M60.007 23.541c-.361.941 1.178 2.47 1.951 1.978.775-.495 1.885-1.482 1.885-1.482s1.177.945.701 1.619c-.479.672-2.386 1.428.374 1.122 2.831-.313 3.347-.897 3.333-1.437-.015-.538.141-2.469.631-2.603.015-.99-1.925-.898-1.253-1.889.672-.986-.905-2.606-.905-2.606s-1.228.719-1.382 1.888c-.155 1.167-1.304.538-1.848.806.141.584-.026 1.212-.026 1.212l-.711-.629c.001-.001-2.571 1.168-2.75 2.021z" fill="url(#f) #000"/><radialGradient cx="64.552" cy="14.165" r="52.242" fx="64.552" fy="14.165" id="g" gradientUnits="userSpaceOnUse"><stop offset="0" stop-color="#0f80bc"/><stop offset=".338" stop-color="#0a5f9e"/><stop offset="1" stop-color="#00145a"/></radialGradient><path d="M64.61 72.966c-.337.334.05 1.343.483 1.296.434-.049 1.11-.24 1.11-.24s.337.672 0 .865c-.339.19-1.319.108-.049.575 1.303.48 1.642.336 1.739.096.095-.24.529-1.056.771-1.009.195-.431-.676-.814-.193-1.102.483-.291.099-1.346.099-1.346s-.676.048-.966.529c-.29.479-.676-.049-.966-.049-.049.288-.24.528-.24.528l-.193-.431c-.001 0-1.354-.048-1.595.288z" fill="url(#g) #000"/><g><defs><ellipse cx="63.755" cy="59.375" rx="58.215" ry="58.254" id="h"/></defs><clipPath id="i"><use width="132.72" height="127.219" xlink:href="#h"/></clipPath><linearGradient x1="76.372" y1="16.592" x2="93.232" y2="18.029" id="j" gradientUnits="userSpaceOnUse"><stop offset="0" stop-color="#0f80bc"/><stop offset=".338" stop-color="#0a5f9e"/><stop offset="1" stop-color="#00145a"/></linearGradient><path d="M65.061 1.002c-.912.203.613 3.503.613 3.503s-.055 2.216.321 2.329c.374.113 2.852.733 4.147 2.345 1.301 1.614.625 2.463-.458 1.997-1.084-.465-.797.959-.797.959s3.27 1.063.8.995c-2.475-.066 1.666 1.741 1.393 1.93-.273.191-.429 1.231-.429 1.231s-2.183.182-.333.959c6.26 2.637-.669 1.925-.669 1.925l-.884 1.087 1.749 2.194 1.345.962s2.833-.945 3.716-1.093c.884-.146 3.114-1.815 3.114-1.815s.669.478.169-.497c-.501-.976 1.841-.54 2.425.186l4.134 1.867a.778.778 0 0 0 .292.375c.806.565-.729 1.535-.573 2.562.156 1.016 1.093 2.704 2.121 2.526-.18-.969 1.851-1.086 1.144-.006-.706 1.077.077 1.056.077 1.056s.653 1.521 2.034.676c-.056.464.227 1.397 1.413 1.459 0 0-.126.506.848.865-.132 1.737.424 1.792.561-.846.245 1.157.992-.471 1.141-1.25.15-.784 1.756-2.505 1.322-.984-.431 1.508 4.735 2.06 5.308.259.578-1.815 2.637-2.763 2.699-3.038.062-.281-4.583-.712-4.07-.493.514.219 1.47-.948 1.115-1.986.576.116.83-2.301-.083-2.927 1.143-2.405.651-2.48.182-2.001-.57 1.205-2.922 3.023-1.327.783 1.609-2.263-.653-.284-1.438.208-.689 1.341-1.899 1.08-1.899 1.08s-.222-.911-1.516-.607c.151-1.612-.653-.838-1.12-1.154-.285-.193-.558-.627-.726-.999 1.115.452 2.612.933 2.354.104-.167-.542 2.112.643 2.192.396l2.848-.396 2.769-1.75C85.388.164 65.061 1.002 65.061 1.002z" clip-path="url(#i)" fill="url(#j) #000"/><linearGradient x1="38.492" y1="19.147" x2="29.174" y2="32.832" id="k" gradientUnits="userSpaceOnUse"><stop offset="0" stop-color="#0f80bc"/><stop offset=".338" stop-color="#0a5f9e"/><stop offset="1" stop-color="#00145a"/></linearGradient><path d="M38.752 6.095c-10.573 4.747-18.551 14.531-18.551 14.531s.938 2.145 1.265 1.987c.33-.156-2.361 5.628-.386 5.954 1.985.325 7.696-3.578 6.637-3.22-1.056.356.595-2.112.595-2.112s2.972-1.318 1.214.202c-1.743 1.511 2.318.187 2.255.496-.064.311.525 1.147.525 1.147s-1.393 1.494.406.892c6.172-2.075.812 1.779.812 1.779l.106 1.312 2.67.464 1.578-.15s1.381-2.436 1.914-3.098c.535-.663 1.028-3.284 1.028-3.284s.803-.084-.213-.468c-1.016-.385.972-1.583 1.886-1.434l4.303-1.336a.82.82 0 0 0 .47.082c.985-.114.489 1.603 1.294 2.25.796.644 2.627 1.264 3.283.469-.784-.594.674-2.011.86-.751.187 1.249.767.723.767.723s1.543-2.654 2.036-4.177c.27.377 2.788-3.309 2.025-5.067-.771-1.78.479-3.456.34-3.715-.143-.256-.896.528-.34.34.561-.192-1.589.772-1.874-2.061-.288-2.89-.707.243-.985 1.169.377 1.508 4.29-6.093 4.29-6.093L64.006.869c0 .004-11.481-.957-25.254 5.226z" clip-path="url(#i)" fill="url(#k) #000"/></g><linearGradient x1="62.652" y1="34.546" x2="62.652" y2="11.895" id="l" gradientUnits="userSpaceOnUse"><stop offset=".014" stop-opacity="0"/><stop offset=".65" stop-color="#c4e0e3" stop-opacity=".2"/><stop offset=".822" stop-color="#c4e0e3"/><stop offset=".85" stop-color="#cde5e8"/><stop offset=".944" stop-color="#e8f4f7"/><stop offset="1" stop-color="#f2fafc"/></linearGradient><ellipse cx="62.652" cy="23.271" rx="30.825" ry="19.971" opacity=".5" fill="url(#l) #000"/></g><g transform="matrix(1.0777 0 0 1.08028 -2.53 -.76)"><linearGradient x1="64.478" y1="56.301" x2="78.466" y2="48.085" id="m" gradientUnits="userSpaceOnUse"><stop offset="0" stop-color="#df731b"/><stop offset=".545" stop-color="#df731b"/><stop offset=".701" stop-color="#ec8811"/><stop offset=".859" stop-color="#f4950b"/><stop offset="1" stop-color="#f79a09"/></linearGradient><path d="M125.321 43.084l-1.426 9.15s-2.039-16.94-4.538-23.273c-3.83-9.704-5.534-9.626-5.545-9.612 2.565 6.519 2.1 10.021 2.1 10.021s-4.545-12.387-16.562-16.328c-14.232-4.665-21.482-2.979-21.428-2.914.054.066 14.709 2.562 17.308 6.133 0 0-6.225 0-12.42 1.785-.28.08 22.793 2.882 27.51 25.938 0 0-2.529-5.277-5.657-6.173 2.057 6.258 1.529 18.133-.43 24.035-.252.759-.51-3.281-4.369-5.021 1.236 8.857-.074 22.905-6.219 26.775-.479.301 3.852-13.868.871-8.39-17.797 27.287-38.956 11.04-47.538 5.249 6.888 1.688 14.205.472 18.441-2.423 4.275-2.922 6.804-5.058 9.075-4.553 2.27.507 3.781-1.771 2.018-3.792-1.765-2.025-6.051-4.808-11.849-3.291-4.089 1.071-9.156 5.595-16.891 1.014-6.599-3.91-6.554-7.085-6.554-9.108 0-2.024 1.8-5.1 5.076-4.595 2.934.453 1.388-1.27 4.545 0 .86.346-.086-4.129-1.31-6.996 2.357-4.919 10.004-6.381 10.575-6.812 1.034-.782.465-1.172.818-2.35.33-1.097.541-4.062-8.017-3.243-3.938.377-6.443-4.726-7.264-5.965a18.383 18.383 0 0 1 1.271-4.338c.587-1.203 1.228-2.305 1.868-3.139.2-.261.374-.49.532-.703 1.276-1.488 2.842-2.76 4.722-3.818.981-.554-10.969-.035-16.346 6.974-1.443.188-3.423-.228-5.636-.228-2.774 0-4.953.303-6.97.81-.323.081-.844.037-1.481-.115-1.775-1.839-6.797-6.259-7.027-12.254 0 0-7.302 5.612-6.209 20.912-.096 8.461-2.594 6.042-3.879 10.634-.598 2.176.899 3.815.899 3.879-.002.033 1.796-1.946 1.796-1.946s-11.323 19.617 3.3 44.66c12.604 21.589 33.755 31.13 55.703 29.272a68.037 68.037 0 0 0 11.564-1.754c51.133-12.363 45.573-74.107 45.573-74.107z" fill="url(#m) #000"/><linearGradient x1="41.839" y1="36.962" x2="52.697" y2="37.892" id="n" gradientUnits="userSpaceOnUse"><stop offset=".011" stop-color="#941403"/><stop offset=".897" stop-color="#e85c0a"/></linearGradient><path d="M45.469 27.61s2.21 6.039 7.167 6.019c9.457-.038 9.646.093 9.707 1.243.188 3.5-1.54 4.647-2.201 5.145-.663.497-9.668 5.718-9.999 7.211-.331 1.492-10.391-14.198-10.391-14.198l5.717-5.42z" fill="url(#n) #000"/><linearGradient x1="24.45" y1="33.953" x2="63.643" y2="38.852" id="o" gradientUnits="userSpaceOnUse"><stop offset=".011" stop-color="#941403"/><stop offset=".136" stop-color="#a32104"/><stop offset=".498" stop-color="#c84107"/><stop offset=".789" stop-color="#df5509"/><stop offset=".972" stop-color="#e85c0a"/></linearGradient><path d="M50.504 34.12s3.072 3.922.749 5.491c-2.838 1.916 4.012 2.335 6.494.942s4.006-3.44 4.093-3.745c.087-.305.902-3.054-4.279-2.096-3.276.606-4.476.746-7.057-.592z" fill="url(#o) #000"/><linearGradient x1="48.731" y1="44.32" x2="51.856" y2="42.945" id="p" gradientUnits="userSpaceOnUse"><stop offset="0" stop-color="#f2c8a9"/><stop offset="1" stop-color="#ffc"/></linearGradient><path d="M60.143 40.017c.502-.378 1.616-1.137 2.042-3.011-.311.126-.34-.23-.707-.076-6.955 7.255-7.221 2.203-11.017 3.22-3.46.947-4.237 2.246-4.383 2.347l.155.221c.997.506 1.953 2.122 2.671 3.564.702.836 1.173 1.248 1.241.945.33-1.493 9.335-6.714 9.998-7.21z" fill="url(#p) #000"/><linearGradient x1="38.768" y1="82.582" x2="91.339" y2="84.747" id="q" gradientUnits="userSpaceOnUse"><stop offset="0" stop-color="#b30000"/><stop offset="1" stop-color="#df731b"/></linearGradient><path d="M8.18 45.782c-1.42 2.979-10.532 18.377 4.339 44.005 14.552 25.084 39.737 33.276 65.45 27.71 7.34-1.588 15.803-7.331 21.196-11.545-3.465-8.74-1.414-8.412-3.271-7.262-20.714 12.823-37.18.174-49.924-1.443C-.913 91.305 8.345 45.689 8.345 45.689l-.165.093z" fill="url(#q) #000"/><linearGradient x1="51.278" y1="74.424" x2="78.689" y2="84.212" id="r" gradientUnits="userSpaceOnUse"><stop offset="0" stop-color="#941403"/><stop offset="1" stop-color="#df731b"/></linearGradient><path d="M47.219 80.933c4.419 1.325 14.06.183 18.201-2.897 2.79-2.074 4.898-3.638 6.671-4.292-3.134-2.129-3.184.889-9.774 2.415-13.728 3.185-20.393-3.695-20.393-3.695.972 5.444 4.372 8.095 5.902 9.036-.406-.36-.619-.571-.607-.567z" fill="url(#r) #000"/><linearGradient x1="6.106" y1="87.057" x2="32.828" y2="87.057" id="s" gradientUnits="userSpaceOnUse" gradientTransform="rotate(2.807 27.644 95.554)"><stop offset=".056" stop-color="#b30000"/><stop offset="1" stop-color="#de5c01"/></linearGradient><path d="M32.332 105.794S20.904 92.898 17.714 78.456c-4.704-4.443-8.042-8.2-10.259-10.917 1.28 10.277 6.52 26.232 24.877 38.255z" fill="url(#s) #000"/><linearGradient x1="209.723" y1="-130.659" x2="224.261" y2="-85.619" id="t" gradientUnits="userSpaceOnUse" gradientTransform="rotate(6.812 -1626.852 -1650.804)"><stop offset=".056" stop-color="#de7210"/><stop offset="1" stop-color="#f6c08f"/></linearGradient><path d="M22.799 94.082s-7.887-11.228-4.93-20.762c2.66-8.571-.565-3.472-2.441-1.64-1.895 1.851-2.869-5.464-2.821-6.307.003-.018.001-.026-.001-.027-.119-.025-3.754 17.526 10.193 28.736z" fill="url(#t) #000"/><linearGradient x1="12.471" y1="61.107" x2="12.471" y2="111.455" id="u" gradientUnits="userSpaceOnUse" gradientTransform="rotate(2.563 17.155 71.762)"><stop offset=".056" stop-color="#de7210"/><stop offset="1" stop-color="#f6c08f"/></linearGradient><path d="M11.115 84.294S9.317 61.506 15 58.285c9.025-5.115.753-3.919-1.864-2.499-2.645 1.433-2.4-8-2.026-8.896.367-.883-9.315 8.918.005 37.404z" fill="url(#u) #000"/><path d="M50.601 17.239s-7.145 7.257-7.092 7.282c.054.026.205 9.315.438 11.948.856 1.011 3.524 7.588 1.482 6.128-2.086-1.49-.582-1.522-.4-.765.005.025.005.037 0 .037-.138.064-5.185-10.923 5.572-24.63z" fill="#a40000"/><linearGradient x1="18.348" y1="30.846" x2="12.886" y2="16.85" id="v" gradientUnits="userSpaceOnUse"><stop offset=".011" stop-color="#941403"/><stop offset=".472" stop-color="#e85c0a"/><stop offset="1" stop-color="#f9bd5f"/></linearGradient><path d="M16.613 11.647s-7.594 5.825-6.143 21.805c5.878-5.277 14.19-9.222 14.19-9.222-1.395-.878-7.794-5.997-8.047-12.583z" fill="url(#v) #000"/><linearGradient x1="41.704" y1="34.058" x2="54.792" y2="16.853" id="w" gradientUnits="userSpaceOnUse"><stop offset=".197" stop-color="#de7210"/><stop offset=".843" stop-color="#f9bd5f"/><stop offset="1" stop-color="#fffccf"/></linearGradient><path d="M35.328 29.122l11.406 14.185c-3.291-13.93-.761-22.288 7.34-26.847 1.199-.676-16.925.243-18.746 12.662z" fill="url(#w) #000"/><linearGradient x1="34.784" y1="57.541" x2="48.052" y2="84.079" id="x" gradientUnits="userSpaceOnUse"><stop offset=".017" stop-color="#941403"/><stop offset=".5" stop-color="#e35100"/><stop offset="1" stop-color="#df731b"/></linearGradient><path d="M27.292 64.164C29.237 51.908 46.294 53.71 46.294 53.71c-.761.565-3.683.903-4.52 3.241-2.762 7.719-.128 24.581 17.078 31.653 1.815.748-34.434-6.328-31.56-24.44z" fill="url(#x) #000"/><linearGradient x1="54.825" y1="41.267" x2="58.139" y2="44.27" id="y" gradientUnits="userSpaceOnUse"><stop offset="0" stop-color="#eea272"/><stop offset=".186" stop-color="#efa777"/><stop offset=".406" stop-color="#f2b585"/><stop offset=".643" stop-color="#f6cd9c"/><stop offset=".89" stop-color="#fceebb"/><stop offset="1" stop-color="#ffc"/></linearGradient><path d="M62.087 37.338c-.084-.015-.158-.013-.195.037-.21.281-1.021 1.239-2.95 2.81-3.583 2.915-5.093 2.177-7.762 2.774-1.215.271-2.37 1.087-3.148 1.741.315.509.609 1.057.871 1.582.702.836 1.173 1.248 1.241.945.331-1.493 9.336-6.714 9.999-7.211.47-.353 1.468-1.054 1.944-2.678z" fill="url(#y) #000"/><linearGradient x1="35.5" y1="48.361" x2="50.721" y2="63.893" id="z" gradientUnits="userSpaceOnUse"><stop offset=".197" stop-color="#df731b"/><stop offset=".843" stop-color="#f9bd5f"/><stop offset="1" stop-color="#fffccf"/></linearGradient><path d="M51.09 55.865c.1-2.59-.081-8.881-2.774-11.611-2.057-2.085-2.54-4.474-2.816-7.201-22.363 8.353-25.556 19.272-23.32 18.917 17.886-2.835 22.914-3.182 28.91-.105z" fill="url(#z) #000"/><linearGradient x1="847.471" y1="-1065.021" x2="847.471" y2="-1007.958" id="A" gradientUnits="userSpaceOnUse" gradientTransform="rotate(14.693 -3854.012 -3747.118)"><stop offset=".056" stop-color="#de7210"/><stop offset="1" stop-color="#f6c08f"/></linearGradient><path d="M3.411 71.171s1.554-20.192 11.661-27.582c7.935-5.805 1.773-3.696-1.291-3.456-3.231.256-4.954 2.221-4.331 1.498.027-.03.036-.047.031-.055-.106-.125-7.584 6.15-6.07 29.595z" fill="url(#A) #000"/><linearGradient x1="15.856" y1="36.413" x2="-3.437" y2="67.833" id="B" gradientUnits="userSpaceOnUse" gradientTransform="matrix(.9897 -.0801 .0949 1.1727 -3.82 -4.947)"><stop offset=".056" stop-color="#de7210"/><stop offset="1" stop-color="#f2c06e"/></linearGradient><path d="M2.347 55.658s5.416-17.192 16.362-17.047c7.259.097 1.501-6.134-.695-7.081-2.291-.981-2.839-.943-3.374-.469-.802.71-8.004.436-12.293 24.597z" fill="url(#B) #000"/><linearGradient x1="80.929" y1="67.845" x2="60.433" y2="71.76" id="C" gradientUnits="userSpaceOnUse"><stop offset=".005" stop-color="#fffaee"/><stop offset=".276" stop-color="#f5f89b"/><stop offset=".31" stop-color="#f3ed91"/><stop offset=".467" stop-color="#ecc267"/><stop offset=".618" stop-color="#e6a046"/><stop offset=".761" stop-color="#e2872e"/><stop offset=".892" stop-color="#e07820"/><stop offset="1" stop-color="#df731b"/></linearGradient><path d="M76.185 72.486c.823-.807.249-3.903-4.924-5.78-4.694-1.705-12.021 2.63-14.195 3.486 0 0 8.299-1.555 11.411-1.037 4.218.702 5.7 5.301 7.708 3.331z" fill="url(#C) #000"/><linearGradient x1="-411.273" y1="427.628" x2="-411.273" y2="475.319" id="D" gradientUnits="userSpaceOnUse" gradientTransform="rotate(7.252 2864.416 3601.48)"><stop offset=".056" stop-color="#de7210"/><stop offset="1" stop-color="#f2c06e"/></linearGradient><path d="M10.342 66.822s-.899-16.902 6.676-24.121c5.947-5.67 1.069-3.255-1.444-2.724-2.65.562-3.865 2.377-3.426 1.71.019-.028.023-.043.019-.049-.103-.091-5.619 5.919-1.825 25.184z" fill="url(#D) #000"/><linearGradient x1="-414.436" y1="422.684" x2="-414.436" y2="470.37" id="E" gradientUnits="userSpaceOnUse" gradientTransform="rotate(21.197 832.438 1378.86)"><stop offset=".056" stop-color="#de7210"/><stop offset="1" stop-color="#f2c06e"/></linearGradient><path d="M4.508 61.453s3.201-16.621 12.293-21.801c7.138-4.069 1.823-2.901-.745-2.991-2.708-.093-4.324 1.375-3.738.834.025-.022.033-.037.03-.042-.076-.115-6.878 4.389-7.84 24z" fill="url(#E) #000"/><linearGradient x1="13.848" y1="55.797" x2=".569" y2="75.716" id="F" gradientUnits="userSpaceOnUse" gradientTransform="rotate(-35.865 17.144 54.254)"><stop offset=".056" stop-color="#de7210"/><stop offset="1" stop-color="#f2c072"/></linearGradient><path d="M15.303 68.275s-1.75-10.074 2.021-15.033c3.01-3.957.367-2.021-1.03-1.451-1.458.596-2.011 1.771-1.812 1.34.193-.421-6.488 4.756.821 15.144z" fill="url(#F) #000"/><linearGradient x1="21.035" y1="49.271" x2="7.756" y2="69.189" id="G" gradientUnits="userSpaceOnUse" gradientTransform="rotate(-35.865 17.144 54.254)"><stop offset=".056" stop-color="#de7210"/><stop offset="1" stop-color="#f2c072"/></linearGradient><path d="M17.303 58.775s-1.75-10.074 2.021-15.033c3.01-3.957.367-2.021-1.03-1.451-1.458.596-2.011 1.771-1.812 1.34.193-.421-6.488 4.756.821 15.144z" fill="url(#G) #000"/><linearGradient x1="12.313" y1="37.865" x2="6.504" y2="48.709" id="H" gradientUnits="userSpaceOnUse"><stop offset=".056" stop-color="#de7210"/><stop offset="1" stop-color="#eed8a5"/></linearGradient><path d="M6.725 45.003s4.087-8.375 9.52-10.024c4.336-1.315 1.35-1.296.014-1.622-1.396-.338-2.431.234-2.054.022.368-.207-7.33.049-7.48 11.624z" fill="url(#H) #000"/><linearGradient x1="11.73" y1="44.492" x2="5.921" y2="55.335" id="I" gradientUnits="userSpaceOnUse"><stop offset=".056" stop-color="#de7210"/><stop offset="1" stop-color="#eed8a5"/></linearGradient><path d="M6.142 51.631s4.087-8.375 9.52-10.024c4.336-1.315 1.35-1.296.014-1.622-1.396-.338-2.431.234-2.054.022.367-.208-7.331.049-7.48 11.624z" fill="url(#I) #000"/><linearGradient x1="18.313" y1="39.891" x2="12.698" y2="53.833" id="J" gradientUnits="userSpaceOnUse"><stop offset=".056" stop-color="#de7210"/><stop offset="1" stop-color="#f2c072"/></linearGradient><path d="M9.109 49.803s7.209-14.774 16.794-17.684c7.65-2.32 2.382-2.287.024-2.86-2.462-.597-4.288.414-3.624.039.65-.367-12.93.085-13.194 20.505z" fill="url(#J) #000"/><linearGradient x1="20.447" y1="33.105" x2="7.168" y2="53.023" id="K" gradientUnits="userSpaceOnUse"><stop offset=".056" stop-color="#de7210"/><stop offset="1" stop-color="#f2c072"/></linearGradient><path d="M14.037 41.846s4.484-9.189 10.445-10.999c4.758-1.443 1.481-1.422.015-1.779-1.532-.371-2.667.257-2.254.024.404-.228-8.042.053-8.206 12.754z" fill="url(#K) #000"/><linearGradient x1="21.341" y1="37.126" x2="9.238" y2="55.279" id="L" gradientUnits="userSpaceOnUse"><stop offset=".056" stop-color="#de7210"/><stop offset="1" stop-color="#f2c072"/></linearGradient><path d="M15.499 45.092s4.087-8.375 9.52-10.024c4.336-1.315 1.35-1.296.014-1.622-1.396-.338-2.431.234-2.054.022.367-.208-7.331.049-7.48 11.624z" fill="url(#L) #000"/><linearGradient x1="60.286" y1="34.297" x2="61.245" y2="36.006" id="M" gradientUnits="userSpaceOnUse"><stop offset="0" stop-color="#8b8b89"/><stop offset="1" stop-color="#120500"/></linearGradient><path d="M62.344 34.872c-.047-.873-.176-1.158-4.356-1.229.479.217 1.305.652 2.214 1.398 1.201.984 1.396 2.081 1.52 3.217.407-.774.705-1.841.622-3.386z" fill="url(#M) #000"/><linearGradient x1="22.56" y1="28.492" x2="22.56" y2="23.245" id="N" gradientUnits="userSpaceOnUse"><stop offset=".056" stop-color="#de7210"/><stop offset="1" stop-color="#f6c08f"/></linearGradient><path d="M37.802 23.206l-3.625 5.833s-14.496-2.273-26.785 9.616c-1.016.982 8.038-21.023 30.41-15.449z" fill="url(#N) #000"/><linearGradient x1="23.012" y1="34.751" x2="33.993" y2="21.918" id="O" gradientUnits="userSpaceOnUse" gradientTransform="rotate(2.292 33.954 24.338)"><stop offset=".056" stop-color="#de7210"/><stop offset="1" stop-color="#f6c08f"/></linearGradient><path d="M24.784 33.646s3.863-7.172 8.872-9.339c-2.589.082-8.403 2.106-8.872 9.339z" fill="url(#O) #000"/><linearGradient x1="15.509" y1="33.508" x2="9.7" y2="44.352" id="P" gradientUnits="userSpaceOnUse"><stop offset=".056" stop-color="#de7210"/><stop offset="1" stop-color="#eed8a5"/></linearGradient><path d="M9.92 40.646s4.087-8.375 9.52-10.024c4.336-1.315 1.35-1.296.014-1.622-1.396-.338-2.431.234-2.054.022.368-.207-7.331.049-7.48 11.624z" fill="url(#P) #000"/><linearGradient x1="16.34" y1="35.805" x2="27.067" y2="23.268" id="Q" gradientUnits="userSpaceOnUse" gradientTransform="rotate(5.957 21.63 35.315)"><stop offset=".056" stop-color="#de7210"/><stop offset="1" stop-color="#f6c08f"/></linearGradient><path d="M18.482 34.745s4.217-6.751 9.235-8.548c-2.527-.083-8.323 1.526-9.235 8.548z" fill="url(#Q) #000"/><linearGradient x1="13.372" y1="22.876" x2="26.26" y2="24.641" id="R" gradientUnits="userSpaceOnUse" gradientTransform="rotate(5.19 27.104 24.746)"><stop offset=".056" stop-color="#de7210"/><stop offset="1" stop-color="#f6c08f"/></linearGradient><path d="M25.712 23.214s-3.18 1.389-8.787-.942l4.999 2.513 3.788-1.571z" fill="url(#R) #000"/><linearGradient x1="6.983" y1="23.109" x2="25.178" y2="25.601" id="S" gradientUnits="userSpaceOnUse"><stop offset=".056" stop-color="#de7210"/><stop offset="1" stop-color="#f6c08f"/></linearGradient><path d="M24.175 24.105s-4.238 1.642-12.394-.802l6.977 2.776c.863-.798 5.417-1.974 5.417-1.974z" fill="url(#S) #000"/><linearGradient x1="15.881" y1="22.228" x2="27.724" y2="23.85" id="T" gradientUnits="userSpaceOnUse" gradientTransform="rotate(5.19 27.104 24.746)"><stop offset=".056" stop-color="#de7210"/><stop offset="1" stop-color="#f6c08f"/></linearGradient><path d="M27.268 22.759s-2.813.856-8.009-1.154l4.999 2.513c.528-.467 3.01-1.359 3.01-1.359z" fill="url(#T) #000"/><linearGradient x1="15.201" y1="26.94" x2="4.522" y2="25.844" id="U" gradientUnits="userSpaceOnUse"><stop offset=".056" stop-color="#de7210"/><stop offset="1" stop-color="#f6c08f"/></linearGradient><path d="M18.496 25.993s-2.09 1.735-7.443 1.806l4.63.151 2.813-1.957z" fill="url(#U) #000"/><linearGradient x1="10.945" y1="37.1" x2="25.719" y2="19.835" id="V" gradientUnits="userSpaceOnUse" gradientTransform="rotate(5.957 21.63 35.315)"><stop offset=".056" stop-color="#de7210"/><stop offset="1" stop-color="#f6c08f"/></linearGradient><path d="M13.411 34.871s7.153-9.318 13.044-11.428c-2.968-.097-11.975 3.186-13.044 11.428z" fill="url(#V) #000"/></g><g transform="matrix(1.0777 0 0 1.08028 -2.53 -.76)"><linearGradient x1="88.331" y1="117.368" x2="117.265" y2="72.741" id="W" gradientUnits="userSpaceOnUse"><stop offset="0" stop-color="#de5c01"/><stop offset=".736" stop-color="#fefd00"/><stop offset=".778" stop-color="#fefe26"/><stop offset=".837" stop-color="#fffe54"/><stop offset=".889" stop-color="#ffff76"/><stop offset=".932" stop-color="#ffff8b"/><stop offset=".961" stop-color="#ffff92"/></linearGradient><path d="M124.199 50.76s.771 17.288-23.244 41.304c-2.669 2.668-17.16 16.244-16.65 20.317.179 1.439 38.021-5.805 39.894-61.621z" fill="url(#W) #000"/><linearGradient x1="105.157" y1="22.738" x2="86.211" y2="14.417" id="X" gradientUnits="userSpaceOnUse"><stop offset="0" stop-color="#f79a09"/><stop offset=".736" stop-color="#fefd00"/><stop offset=".778" stop-color="#fefe26"/><stop offset=".837" stop-color="#fffe54"/><stop offset=".889" stop-color="#ffff76"/><stop offset=".932" stop-color="#ffff8b"/><stop offset=".961" stop-color="#ffff92"/></linearGradient><path d="M77.64 10.096c28.926 2.222 34.528 23.021 34.53 21.748.073-20.22-27.444-21.755-34.53-21.748z" fill="url(#X) #000"/><linearGradient x1="117.882" y1="41.729" x2="91.359" y2="17.106" id="Y" gradientUnits="userSpaceOnUse"><stop offset="0" stop-color="#de5c01"/><stop offset=".736" stop-color="#fefd00"/><stop offset=".778" stop-color="#fefe26"/><stop offset=".837" stop-color="#fffe54"/><stop offset=".889" stop-color="#ffff76"/><stop offset=".932" stop-color="#ffff8b"/><stop offset=".961" stop-color="#ffff92"/></linearGradient><path d="M86.449 18.003s20.053 4.099 25.709 25.354c.75 2.815-2.416-17.267-1.439-15.361.975 1.916-8.071-9.358-24.27-9.993z" fill="url(#Y) #000"/><linearGradient x1="1.14" y1="145.445" x2="-9.966" y2="133.959" id="Z" gradientUnits="userSpaceOnUse" gradientTransform="rotate(-1.621 -3656.633 -3767.364)"><stop offset="0" stop-color="#f79a09"/><stop offset=".736" stop-color="#fefd00"/><stop offset=".778" stop-color="#fefe26"/><stop offset=".837" stop-color="#fffe54"/><stop offset=".889" stop-color="#ffff76"/><stop offset=".932" stop-color="#ffff8b"/><stop offset=".961" stop-color="#ffff92"/></linearGradient><path d="M94.464 17.483s18.11 3.775 18.29 32.509c.127 20.338 3.141 7.635 6.131 3.064 2.578-3.948.816-8.76.754-8.748-.01.003-1.305-3.743-.432-2.156.039.07-1.216-1.034-1.207-1.035.201-.03-.697-20.652-23.536-23.634z" fill="url(#Z) #000"/><linearGradient x1="113.436" y1="55.834" x2="119.687" y2="34.332" id="aa" gradientUnits="userSpaceOnUse"><stop offset="0" stop-color="#f79a09"/><stop offset=".736" stop-color="#fefd00"/><stop offset=".778" stop-color="#fefe26"/><stop offset=".837" stop-color="#fffe54"/><stop offset=".889" stop-color="#ffff76"/><stop offset=".932" stop-color="#ffff8b"/><stop offset=".961" stop-color="#ffff92"/></linearGradient><path d="M114.857 21.376s6.505 16.945-.389 25.371c-2.25 2.75-2.502 16.839.247 15.545 2.756-1.296 2.157 7.481 1.796 8.48-.008.019-.01.028-.006.031.18.111 13.592-21.66-1.648-49.427z" fill="url(#aa) #000"/><linearGradient x1="-51.966" y1="212.788" x2="-52.194" y2="196.434" id="ab" gradientUnits="userSpaceOnUse" gradientTransform="rotate(-2.361 -3658.052 -3762.18)"><stop offset="0" stop-color="#f79a09"/><stop offset=".736" stop-color="#fefd00"/><stop offset=".778" stop-color="#fefe26"/><stop offset=".837" stop-color="#fffe54"/><stop offset=".889" stop-color="#ffff76"/><stop offset=".932" stop-color="#ffff8b"/><stop offset=".961" stop-color="#ffff92"/></linearGradient><path d="M105.814 39.215s4.095 11.989-.193 20.56l3.244 7.245c2.379-5.844 5.408-18.203-3.051-27.805z" fill="url(#ab) #000"/><linearGradient x1="-172.721" y1="332.082" x2="-161.456" y2="309.893" id="ac" gradientUnits="userSpaceOnUse" gradientTransform="rotate(-4.052 -3665.391 -3730.742)"><stop offset="0" stop-color="#f79a09"/><stop offset=".736" stop-color="#fefd00"/><stop offset=".778" stop-color="#fefe26"/><stop offset=".837" stop-color="#fffe54"/><stop offset=".889" stop-color="#ffff76"/><stop offset=".932" stop-color="#ffff8b"/><stop offset=".961" stop-color="#ffff92"/></linearGradient><path d="M113.016 37.789s2.832 19.03-7.387 36.208c.158 3.973-.539 7.569-1.496 10.532.445.586 1.041.987 1.827 1.057-.347.32-.692.62-1.026.904-.614.271-1.243.558-1.852.853-.13.303-.261.597-.389.879a32.456 32.456 0 0 0 2.24-1.731c2.087-.922 3.965-1.638 3.961-1.642 0 0-.383.143-1.303.478-.619.225-1.16.301-1.632.259 7.892-7.192 18.706-23.275 7.057-47.797zm-11.907 50.59c-.902.529-1.558 1.025-1.698 1.408-.103.279.512.118 1.575-.479.055-.319.1-.632.123-.929z" fill="url(#ac) #000"/><linearGradient x1="99.206" y1="87.747" x2="100.721" y2="63.169" id="ad" gradientUnits="userSpaceOnUse" gradientTransform="rotate(-4.052 187.36 161.744)"><stop offset="0" stop-color="#de5c01"/><stop offset=".736" stop-color="#fefd00"/><stop offset=".778" stop-color="#fefe26"/><stop offset=".837" stop-color="#fffe54"/><stop offset=".889" stop-color="#ffff76"/><stop offset=".932" stop-color="#ffff8b"/><stop offset=".961" stop-color="#ffff92"/></linearGradient><path d="M100.412 58.065s8.057 22.932-17.693 44.432c-1.519 1.269 10.452.726 11.5.25 3.086-1.402 6.733-10.757 6.303-9.637-.427 1.119 11.957-16.536-.11-35.045z" fill="url(#ad) #000"/><linearGradient x1="58.369" y1="113.859" x2="105.875" y2="85.465" id="ae" gradientUnits="userSpaceOnUse"><stop offset="0" stop-color="#b9120d"/><stop offset=".078" stop-color="#bb180d"/><stop offset=".182" stop-color="#c0290c"/><stop offset=".301" stop-color="#c8450a"/><stop offset=".431" stop-color="#d36c08"/><stop offset=".571" stop-color="#e29e05"/><stop offset=".715" stop-color="#f4da02"/><stop offset=".792" stop-color="#fefd00"/><stop offset=".814" stop-color="#fefd07"/><stop offset=".845" stop-color="#fefd1b"/><stop offset=".884" stop-color="#fefe3c"/><stop offset=".927" stop-color="#fffe69"/><stop offset=".974" stop-color="#ffffa3"/><stop offset="1" stop-color="#ffffc7"/></linearGradient><path d="M111.68 72.61s-4.86 29.744-38.461 32.137c-13.157.938-32.048-2.141-30.375 2.877.519 1.556 2.992 8.043 8.636 9.548 15.275 4.075 55.915 2.741 60.2-44.562z" fill="url(#ae) #000"/></g><g transform="matrix(1.0777 0 0 1.08028 -2.53 -.76)"><linearGradient x1="54.24" y1="93.582" x2="102.907" y2="100.176" id="af" gradientUnits="userSpaceOnUse" gradientTransform="rotate(5.674 66.469 101.705)"><stop offset=".056" stop-color="#de7210"/><stop offset="1" stop-color="#f6c08f"/></linearGradient><path d="M83.657 95.119s-20.559 4.697-33.878-6.641c-12.187-10.377-6.141-1.643-4.488 2.665 1.698 4.418-7.853 1.042-9.289.332-1.431-.701 22.623 14.384 47.655 3.644z" fill="url(#af) #000"/><linearGradient x1="39.013" y1="89.89" x2="95.522" y2="107.65" id="ag" gradientUnits="userSpaceOnUse" gradientTransform="rotate(8.325 47.227 95.202)"><stop offset=".056" stop-color="#de7210"/><stop offset="1" stop-color="#f6c08f"/></linearGradient><path d="M70.408 106.325s-24.525-4.82-32.29-21.438c-6.635-14.197-4.879-3.779-5.178.962-.314 4.877-7.191-1.783-8.11-2.942-.026-.028-.044-.047-.046-.042-.137.09 12.649 20.134 45.624 23.46z" fill="url(#ag) #000"/><linearGradient x1="-601.467" y1="628.961" x2="-574.597" y2="680.404" id="ah" gradientUnits="userSpaceOnUse" gradientTransform="rotate(-10.359 -3298.865 -3083.51)"><stop offset=".056" stop-color="#de7210"/><stop offset="1" stop-color="#f6c08f"/></linearGradient><path d="M43.617 104.176s-11.714-9.073-16.995-21.514c-4.438-1.542-10.339-5.067-10.456-5.67 1.875 9.667 11.746 20.954 27.451 27.184z" fill="url(#ah) #000"/></g></svg>